<svg width="608" height="587" viewBox="0 0 608 587" fill="none" xmlns="http://www.w3.org/2000/svg">
<path fill-rule="evenodd" clip-rule="evenodd" d="M301.536 58.7691C339.513 66.5265 378.089 44.2557 416.081 51.9295C458.772 60.5522 501.116 76.3027 533.721 105.666C568.274 136.784 601.086 176.783 606.521 223.436C611.95 270.041 566.423 308.353 562.783 355.139C558.341 412.221 615.977 476.99 583.172 523.492C551.178 568.843 476.885 540.865 423.329 552.815C381.557 562.136 343.671 589.697 301.029 586.448C259.087 583.252 224.98 553.668 187.21 534.822C149.632 516.073 100.445 511.101 77.9676 475.15C55.2163 438.76 80.9253 389.315 70.1505 347.592C58.8912 303.992 21.8638 271.31 13.876 226.968C4.14919 172.971 -10.8091 110.068 19.1412 64.4263C48.5558 19.6008 109.778 1.23213 162.699 0.171958C213.421 -0.844137 251.796 48.6088 301.536 58.7691Z" fill="#C9A66B" fill-opacity="0.5"/>
</svg>
