<svg width="70" height="70" viewBox="0 0 70 70" fill="none" xmlns="http://www.w3.org/2000/svg">
<path fill-rule="evenodd" clip-rule="evenodd" d="M9.40625 0.109375C9.40625 0.170188 9.11455 0.21875 8.75 0.21875C8.38545 0.21875 8.09375 0.267312 8.09375 0.328125C8.09375 0.388281 7.89687 0.4375 7.65625 0.4375C7.41563 0.4375 7.21875 0.486719 7.21875 0.546875C7.21875 0.607031 7.12031 0.65625 7 0.65625C6.87969 0.65625 6.78125 0.705469 6.78125 0.765625C6.78125 0.825781 6.63359 0.875 6.45312 0.875C6.27266 0.875 6.125 0.924219 6.125 0.984375C6.125 1.04453 6.02656 1.09375 5.90625 1.09375C5.78594 1.09375 5.6875 1.14297 5.6875 1.20312C5.6875 1.26328 5.59989 1.3125 5.49292 1.3125C5.38584 1.3125 5.22736 1.41094 5.14062 1.53125C5.05389 1.65156 4.90623 1.75 4.8125 1.75C4.71877 1.75 4.57111 1.84844 4.48438 1.96875C4.39764 2.08906 4.263 2.1875 4.18524 2.1875C4.00072 2.1875 2.1875 4.00072 2.1875 4.18524C2.1875 4.263 2.08906 4.39764 1.96875 4.48438C1.84844 4.57111 1.75 4.71877 1.75 4.8125C1.75 4.90623 1.65156 5.05389 1.53125 5.14062C1.41094 5.22736 1.3125 5.38584 1.3125 5.49292C1.3125 5.59989 1.26328 5.6875 1.20312 5.6875C1.14297 5.6875 1.09375 5.78594 1.09375 5.90625C1.09375 6.02656 1.04453 6.125 0.984375 6.125C0.924219 6.125 0.875 6.22344 0.875 6.34375C0.875 6.46406 0.825781 6.5625 0.765625 6.5625C0.705469 6.5625 0.65625 6.71016 0.65625 6.89062C0.65625 7.07109 0.607031 7.21875 0.546875 7.21875C0.486719 7.21875 0.4375 7.41563 0.4375 7.65625C0.4375 7.89687 0.388281 8.09375 0.328125 8.09375C0.267312 8.09375 0.21875 8.38545 0.21875 8.75C0.21875 9.11455 0.170188 9.40625 0.109375 9.40625C0.03675 9.40625 0 18.0469 0 35.1094C0 52.1719 0.03675 60.8125 0.109375 60.8125C0.169531 60.8125 0.21875 61.0586 0.21875 61.3594C0.21875 61.6602 0.267969 61.9062 0.328125 61.9062C0.388281 61.9062 0.4375 62.1031 0.4375 62.3438C0.4375 62.5844 0.486719 62.7812 0.546875 62.7812C0.607031 62.7812 0.65625 62.8797 0.65625 63C0.65625 63.1203 0.705469 63.2188 0.765625 63.2188C0.825781 63.2188 0.875 63.3664 0.875 63.5469C0.875 63.7273 0.924219 63.875 0.984375 63.875C1.04453 63.875 1.09375 63.9734 1.09375 64.0938C1.09375 64.2141 1.14297 64.3125 1.20312 64.3125C1.26328 64.3125 1.3125 64.4001 1.3125 64.5071C1.3125 64.6142 1.41094 64.7726 1.53125 64.8594C1.65156 64.9461 1.75 65.0938 1.75 65.1875C1.75 65.2812 1.84844 65.4289 1.96875 65.5156C2.08906 65.6024 2.1875 65.737 2.1875 65.8148C2.1875 65.9993 4.00072 67.8125 4.18524 67.8125C4.263 67.8125 4.39764 67.9109 4.48438 68.0312C4.57111 68.1516 4.71877 68.25 4.8125 68.25C4.90623 68.25 5.05389 68.3484 5.14062 68.4688C5.22736 68.5891 5.38584 68.6875 5.49292 68.6875C5.59989 68.6875 5.6875 68.7367 5.6875 68.7969C5.6875 68.857 5.78594 68.9062 5.90625 68.9062C6.02656 68.9062 6.125 68.9555 6.125 69.0156C6.125 69.0758 6.27266 69.125 6.45312 69.125C6.63359 69.125 6.78125 69.1742 6.78125 69.2344C6.78125 69.2945 6.92891 69.3438 7.10938 69.3438C7.28984 69.3438 7.4375 69.393 7.4375 69.4531C7.4375 69.5133 7.58516 69.5625 7.76562 69.5625C7.94609 69.5625 8.09375 69.6117 8.09375 69.6719C8.09375 69.7327 8.38545 69.7812 8.75 69.7812C9.11455 69.7812 9.40625 69.8298 9.40625 69.8906C9.40625 69.9632 18.0105 70 35 70C51.9895 70 60.5938 69.9632 60.5938 69.8906C60.5938 69.8298 60.8855 69.7812 61.25 69.7812C61.6145 69.7812 61.9062 69.7327 61.9062 69.6719C61.9062 69.6117 62.0539 69.5625 62.2344 69.5625C62.4148 69.5625 62.5625 69.5133 62.5625 69.4531C62.5625 69.393 62.7102 69.3438 62.8906 69.3438C63.0711 69.3438 63.2188 69.2945 63.2188 69.2344C63.2188 69.1742 63.3664 69.125 63.5469 69.125C63.7273 69.125 63.875 69.0758 63.875 69.0156C63.875 68.9555 63.9734 68.9062 64.0938 68.9062C64.2141 68.9062 64.3125 68.857 64.3125 68.7969C64.3125 68.7367 64.4001 68.6875 64.5071 68.6875C64.6142 68.6875 64.7726 68.5891 64.8594 68.4688C64.9461 68.3484 65.0849 68.25 65.1678 68.25C65.2506 68.25 65.4565 68.1023 65.625 67.9219C65.7935 67.7414 65.9865 67.5938 66.0537 67.5938C66.213 67.5938 67.5938 66.213 67.5938 66.0537C67.5938 65.9865 67.7414 65.7935 67.9219 65.625C68.1023 65.4565 68.25 65.2506 68.25 65.1678C68.25 65.0849 68.3484 64.9461 68.4688 64.8594C68.5891 64.7726 68.6875 64.6142 68.6875 64.5071C68.6875 64.4001 68.7367 64.3125 68.7969 64.3125C68.857 64.3125 68.9062 64.2141 68.9062 64.0938C68.9062 63.9734 68.9555 63.875 69.0156 63.875C69.0758 63.875 69.125 63.7273 69.125 63.5469C69.125 63.3664 69.1742 63.2188 69.2344 63.2188C69.2945 63.2188 69.3438 63.0711 69.3438 62.8906C69.3438 62.7102 69.393 62.5625 69.4531 62.5625C69.5133 62.5625 69.5625 62.4148 69.5625 62.2344C69.5625 62.0539 69.6117 61.9062 69.6719 61.9062C69.7327 61.9062 69.7812 61.6145 69.7812 61.25C69.7812 60.8855 69.8298 60.5938 69.8906 60.5938C69.9632 60.5938 70 51.9895 70 35C70 18.0105 69.9632 9.40625 69.8906 9.40625C69.8298 9.40625 69.7812 9.11455 69.7812 8.75C69.7812 8.38545 69.7327 8.09375 69.6719 8.09375C69.6117 8.09375 69.5625 7.94609 69.5625 7.76562C69.5625 7.58516 69.5133 7.4375 69.4531 7.4375C69.393 7.4375 69.3438 7.28984 69.3438 7.10938C69.3438 6.92891 69.2945 6.78125 69.2344 6.78125C69.1742 6.78125 69.125 6.63359 69.125 6.45312C69.125 6.27266 69.0758 6.125 69.0156 6.125C68.9555 6.125 68.9062 6.02656 68.9062 5.90625C68.9062 5.78594 68.857 5.6875 68.7969 5.6875C68.7367 5.6875 68.6875 5.59989 68.6875 5.49292C68.6875 5.38584 68.5891 5.22736 68.4688 5.14062C68.3484 5.05389 68.25 4.90623 68.25 4.8125C68.25 4.71877 68.1516 4.57111 68.0312 4.48438C67.9109 4.39764 67.8125 4.263 67.8125 4.18524C67.8125 4.00072 65.9993 2.1875 65.8148 2.1875C65.737 2.1875 65.6024 2.08906 65.5156 1.96875C65.4289 1.84844 65.2812 1.75 65.1875 1.75C65.0938 1.75 64.9461 1.65156 64.8594 1.53125C64.7726 1.41094 64.6142 1.3125 64.5071 1.3125C64.4001 1.3125 64.3125 1.26328 64.3125 1.20312C64.3125 1.14297 64.2141 1.09375 64.0938 1.09375C63.9734 1.09375 63.875 1.04453 63.875 0.984375C63.875 0.924219 63.7273 0.875 63.5469 0.875C63.3664 0.875 63.2188 0.825781 63.2188 0.765625C63.2188 0.705469 63.1203 0.65625 63 0.65625C62.8797 0.65625 62.7812 0.607031 62.7812 0.546875C62.7812 0.486719 62.5844 0.4375 62.3438 0.4375C62.1031 0.4375 61.9062 0.388281 61.9062 0.328125C61.9062 0.267969 61.6602 0.21875 61.3594 0.21875C61.0586 0.21875 60.8125 0.169531 60.8125 0.109375C60.8125 0.03675 52.1719 0 35.1094 0C18.0469 0 9.40625 0.03675 9.40625 0.109375ZM60.375 4.04688C60.375 4.10703 60.5719 4.15625 60.8125 4.15625C61.0531 4.15625 61.25 4.20547 61.25 4.26562C61.25 4.32578 61.3977 4.375 61.5781 4.375C61.7586 4.375 61.9062 4.42422 61.9062 4.48438C61.9062 4.54453 62.0047 4.59375 62.125 4.59375C62.2453 4.59375 62.3438 4.64297 62.3438 4.70312C62.3438 4.76328 62.4422 4.8125 62.5625 4.8125C62.6828 4.8125 62.7812 4.86172 62.7812 4.92188C62.7812 4.98203 62.8557 5.03125 62.9468 5.03125C63.1627 5.03125 64.9688 6.83725 64.9688 7.05316C64.9688 7.14426 65.018 7.21875 65.0781 7.21875C65.1383 7.21875 65.1875 7.31719 65.1875 7.4375C65.1875 7.55781 65.2367 7.65625 65.2969 7.65625C65.357 7.65625 65.4062 7.75469 65.4062 7.875C65.4062 7.99531 65.4555 8.09375 65.5156 8.09375C65.5758 8.09375 65.625 8.24141 65.625 8.42188C65.625 8.60234 65.6742 8.75 65.7344 8.75C65.7945 8.75 65.8438 8.99609 65.8438 9.29688C65.8438 9.59766 65.893 9.84375 65.9531 9.84375C66.0257 9.84375 66.0625 18.302 66.0625 35C66.0625 51.698 66.0257 60.1562 65.9531 60.1562C65.893 60.1562 65.8438 60.4023 65.8438 60.7031C65.8438 61.0039 65.7945 61.25 65.7344 61.25C65.6742 61.25 65.625 61.3977 65.625 61.5781C65.625 61.7586 65.5758 61.9062 65.5156 61.9062C65.4555 61.9062 65.4062 62.0047 65.4062 62.125C65.4062 62.2453 65.357 62.3438 65.2969 62.3438C65.2367 62.3438 65.1875 62.4422 65.1875 62.5625C65.1875 62.6828 65.1383 62.7812 65.0781 62.7812C65.018 62.7812 64.9688 62.8557 64.9688 62.9468C64.9688 63.038 64.551 63.5301 64.0406 64.0406C63.5301 64.551 63.038 64.9688 62.9468 64.9688C62.8557 64.9688 62.7812 65.018 62.7812 65.0781C62.7812 65.1383 62.6828 65.1875 62.5625 65.1875C62.4422 65.1875 62.3438 65.2367 62.3438 65.2969C62.3438 65.357 62.2453 65.4062 62.125 65.4062C62.0047 65.4062 61.9062 65.4555 61.9062 65.5156C61.9062 65.5758 61.7586 65.625 61.5781 65.625C61.3977 65.625 61.25 65.6742 61.25 65.7344C61.25 65.7945 61.0039 65.8438 60.7031 65.8438C60.4023 65.8438 60.1562 65.893 60.1562 65.9531C60.1562 66.0257 51.698 66.0625 35 66.0625C18.302 66.0625 9.84375 66.0257 9.84375 65.9531C9.84375 65.893 9.59766 65.8438 9.29688 65.8438C8.99609 65.8438 8.75 65.7945 8.75 65.7344C8.75 65.6742 8.60234 65.625 8.42188 65.625C8.24141 65.625 8.09375 65.5758 8.09375 65.5156C8.09375 65.4555 7.99531 65.4062 7.875 65.4062C7.75469 65.4062 7.65625 65.357 7.65625 65.2969C7.65625 65.2367 7.55781 65.1875 7.4375 65.1875C7.31719 65.1875 7.21875 65.1383 7.21875 65.0781C7.21875 65.018 7.14426 64.9688 7.05316 64.9688C6.83725 64.9688 5.03125 63.1627 5.03125 62.9468C5.03125 62.8557 4.98203 62.7812 4.92188 62.7812C4.86172 62.7812 4.8125 62.6828 4.8125 62.5625C4.8125 62.4422 4.76328 62.3438 4.70312 62.3438C4.64297 62.3438 4.59375 62.2453 4.59375 62.125C4.59375 62.0047 4.54453 61.9062 4.48438 61.9062C4.42422 61.9062 4.375 61.7586 4.375 61.5781C4.375 61.3977 4.32578 61.25 4.26562 61.25C4.20547 61.25 4.15625 61.0531 4.15625 60.8125C4.15625 60.5719 4.10703 60.375 4.04688 60.375C3.97425 60.375 3.9375 51.8438 3.9375 35C3.9375 18.1562 3.97425 9.625 4.04688 9.625C4.10703 9.625 4.15625 9.42813 4.15625 9.1875C4.15625 8.94687 4.20547 8.75 4.26562 8.75C4.32578 8.75 4.375 8.60234 4.375 8.42188C4.375 8.24141 4.42422 8.09375 4.48438 8.09375C4.54453 8.09375 4.59375 7.99531 4.59375 7.875C4.59375 7.75469 4.64297 7.65625 4.70312 7.65625C4.76328 7.65625 4.8125 7.55781 4.8125 7.4375C4.8125 7.31719 4.86172 7.21875 4.92188 7.21875C4.98203 7.21875 5.03125 7.14426 5.03125 7.05316C5.03125 6.83725 6.83725 5.03125 7.05316 5.03125C7.14426 5.03125 7.21875 4.98203 7.21875 4.92188C7.21875 4.86172 7.31719 4.8125 7.4375 4.8125C7.55781 4.8125 7.65625 4.76328 7.65625 4.70312C7.65625 4.64297 7.75469 4.59375 7.875 4.59375C7.99531 4.59375 8.09375 4.54453 8.09375 4.48438C8.09375 4.42422 8.24141 4.375 8.42188 4.375C8.60234 4.375 8.75 4.32578 8.75 4.26562C8.75 4.20547 8.94687 4.15625 9.1875 4.15625C9.42813 4.15625 9.625 4.10703 9.625 4.04688C9.625 3.97425 18.1562 3.9375 35 3.9375C51.8438 3.9375 60.375 3.97425 60.375 4.04688ZM37.625 15.2031C37.625 15.2656 37.2969 15.3125 36.8594 15.3125C36.4219 15.3125 36.0938 15.3594 36.0938 15.4219C36.0938 15.482 35.9461 15.5312 35.7656 15.5312C35.5852 15.5312 35.4375 15.5805 35.4375 15.6406C35.4375 15.7008 35.2898 15.75 35.1094 15.75C34.9289 15.75 34.7812 15.7992 34.7812 15.8594C34.7812 15.9195 34.6828 15.9688 34.5625 15.9688C34.4422 15.9688 34.3438 16.018 34.3438 16.0781C34.3438 16.1383 34.2453 16.1875 34.125 16.1875C34.0047 16.1875 33.9062 16.2367 33.9062 16.2969C33.9062 16.357 33.8318 16.4062 33.7408 16.4062C33.5396 16.4062 31.5 18.424 31.5 18.6228C31.5 18.7006 31.4016 18.8351 31.2812 18.9219C31.1609 19.0086 31.0625 19.1671 31.0625 19.2742C31.0625 19.3811 31.0133 19.4688 30.9531 19.4688C30.893 19.4688 30.8438 19.6164 30.8438 19.7969C30.8438 19.9773 30.7945 20.125 30.7344 20.125C30.6742 20.125 30.625 20.2727 30.625 20.4531C30.625 20.6336 30.5758 20.7812 30.5156 20.7812C30.4555 20.7812 30.4062 20.9781 30.4062 21.2188C30.4062 21.4594 30.357 21.6562 30.2969 21.6562C30.2269 21.6562 30.1875 22.6406 30.1875 24.3906V27.125H27.8906H25.5938V31.0625V35H27.8906H30.1875V44.9531C30.1875 51.5156 30.2248 54.9062 30.2969 54.9062C30.357 54.9062 30.4062 54.857 30.4062 54.7969C30.4062 54.7274 31.2448 54.6875 32.7031 54.6875C34.1614 54.6875 35 54.7274 35 54.7969C35 54.857 35.1969 54.9062 35.4375 54.9062C35.6781 54.9062 35.875 54.857 35.875 54.7969C35.875 54.6279 38.033 54.6536 38.0895 54.8232C38.1224 54.922 38.1846 54.9092 38.3173 54.7764C38.4852 54.6085 38.5 53.8018 38.5 44.7968V35H41.4531H44.4062V31.0625V27.125H41.4531H38.5V25.5938C38.5 24.6458 38.5417 24.0625 38.6094 24.0625C38.6695 24.0625 38.7188 23.9865 38.7188 23.8935C38.7188 23.6747 39.2059 23.1875 39.4248 23.1875C39.5177 23.1875 39.5938 23.1383 39.5938 23.0781C39.5938 23.0086 40.4688 22.9688 42 22.9688H44.4062V19.0312V15.0938H41.0156C38.8281 15.0938 37.625 15.1326 37.625 15.2031Z" fill="#662E1C"/>
</svg>
