<svg width="70" height="70" viewBox="0 0 70 70" fill="none" xmlns="http://www.w3.org/2000/svg">
<path fill-rule="evenodd" clip-rule="evenodd" d="M17.9225 0.0683594C17.9225 0.108896 17.6716 0.136719 17.3068 0.136719C16.942 0.136719 16.6912 0.164541 16.6912 0.205078C16.6912 0.244111 16.486 0.273438 16.2123 0.273438C15.9387 0.273438 15.7335 0.302764 15.7335 0.341797C15.7335 0.379395 15.5796 0.410156 15.3915 0.410156C15.2033 0.410156 15.0494 0.440918 15.0494 0.478516C15.0494 0.516113 14.9263 0.546875 14.7758 0.546875C14.6253 0.546875 14.5022 0.577637 14.5022 0.615234C14.5022 0.652832 14.4098 0.683594 14.297 0.683594C14.1841 0.683594 14.0917 0.714355 14.0917 0.751953C14.0917 0.789551 13.9686 0.820312 13.8181 0.820312C13.6676 0.820312 13.5445 0.851074 13.5445 0.888672C13.5445 0.92627 13.4521 0.957031 13.3393 0.957031C13.2264 0.957031 13.134 0.987793 13.134 1.02539C13.134 1.06299 13.0725 1.09375 12.9972 1.09375C12.922 1.09375 12.8604 1.12451 12.8604 1.16211C12.8604 1.19971 12.7681 1.23047 12.6552 1.23047C12.5423 1.23047 12.45 1.26123 12.45 1.29883C12.45 1.33643 12.3576 1.36719 12.2448 1.36719C12.1319 1.36719 12.0395 1.39795 12.0395 1.43555C12.0395 1.47314 11.978 1.50391 11.9027 1.50391C11.8275 1.50391 11.7659 1.53467 11.7659 1.57227C11.7659 1.60986 11.7043 1.64062 11.6291 1.64062C11.5539 1.64062 11.4923 1.67139 11.4923 1.70898C11.4923 1.74658 11.3999 1.77734 11.2871 1.77734C11.1742 1.77734 11.0818 1.80811 11.0818 1.8457C11.0818 1.8833 11.0203 1.91406 10.945 1.91406C10.8698 1.91406 10.8082 1.94482 10.8082 1.98242C10.8082 2.02002 10.7467 2.05078 10.6714 2.05078C10.5962 2.05078 10.5346 2.08154 10.5346 2.11914C10.5346 2.15674 10.473 2.1875 10.3978 2.1875C10.3225 2.1875 10.261 2.21826 10.261 2.25586C10.261 2.29346 10.2062 2.32422 10.1393 2.32422C10.0723 2.32422 9.97318 2.38574 9.91894 2.46094C9.86469 2.53613 9.76557 2.59766 9.6986 2.59766C9.6317 2.59766 9.57691 2.62842 9.57691 2.66602C9.57691 2.70361 9.52211 2.73438 9.45521 2.73438C9.38824 2.73438 9.28912 2.7959 9.23487 2.87109C9.18063 2.94629 9.0815 3.00781 9.01453 3.00781C8.94763 3.00781 8.89284 3.03857 8.89284 3.07617C8.89284 3.11377 8.83805 3.14453 8.77115 3.14453C8.70418 3.14453 8.60505 3.20605 8.55081 3.28125C8.49656 3.35645 8.41044 3.41797 8.35934 3.41797C8.30824 3.41797 8.14817 3.54102 8.00356 3.69141C7.85895 3.8418 7.70442 3.96484 7.66016 3.96484C7.61583 3.96484 7.49331 4.05713 7.3879 4.16992C7.28248 4.28271 7.16086 4.375 7.11776 4.375C7.0746 4.375 6.82676 4.59033 6.56702 4.85352C6.30728 5.1167 6.0617 5.33203 6.02127 5.33203C5.92578 5.33203 5.3357 5.92136 5.3357 6.01672C5.3357 6.05691 5.08944 6.33329 4.78845 6.63086C4.48746 6.92843 4.2412 7.20699 4.2412 7.24992C4.2412 7.29285 4.14885 7.41419 4.03598 7.51953C3.92311 7.62487 3.83076 7.75353 3.83076 7.80527C3.83076 7.85709 3.7692 7.94384 3.69395 7.99805C3.6187 8.05226 3.55714 8.139 3.55714 8.19082C3.55714 8.24257 3.46479 8.37122 3.35192 8.47656C3.23905 8.5819 3.1467 8.71732 3.1467 8.77741C3.1467 8.83757 3.11591 8.88672 3.07829 8.88672C3.04067 8.88672 3.00988 8.94147 3.00988 9.00833C3.00988 9.07525 2.94832 9.17431 2.87307 9.22852C2.79782 9.28272 2.73626 9.38178 2.73626 9.4487C2.73626 9.51556 2.70548 9.57031 2.66785 9.57031C2.63023 9.57031 2.59945 9.62507 2.59945 9.69192C2.59945 9.75885 2.53788 9.8579 2.46263 9.91211C2.38739 9.96632 2.32582 10.0654 2.32582 10.1323C2.32582 10.1991 2.29504 10.2539 2.25741 10.2539C2.21979 10.2539 2.18901 10.3154 2.18901 10.3906C2.18901 10.4658 2.15822 10.5273 2.1206 10.5273C2.08298 10.5273 2.05219 10.5889 2.05219 10.6641C2.05219 10.7393 2.02141 10.8008 1.98379 10.8008C1.94616 10.8008 1.91538 10.8623 1.91538 10.9375C1.91538 11.0127 1.8846 11.0742 1.84697 11.0742C1.80935 11.0742 1.77857 11.1665 1.77857 11.2793C1.77857 11.3921 1.74779 11.4844 1.71016 11.4844C1.67254 11.4844 1.64176 11.5459 1.64176 11.6211C1.64176 11.6963 1.61097 11.7578 1.57335 11.7578C1.53573 11.7578 1.50494 11.8193 1.50494 11.8945C1.50494 11.9697 1.47416 12.0312 1.43654 12.0312C1.39891 12.0312 1.36813 12.1235 1.36813 12.2363C1.36813 12.3491 1.33735 12.4414 1.29972 12.4414C1.2621 12.4414 1.23132 12.5029 1.23132 12.5781C1.23132 12.6533 1.20053 12.7148 1.16291 12.7148C1.12529 12.7148 1.0945 12.8071 1.0945 12.9199C1.0945 13.0327 1.06372 13.125 1.0261 13.125C0.988473 13.125 0.957691 13.2173 0.957691 13.3301C0.957691 13.4429 0.926908 13.5352 0.889284 13.5352C0.851661 13.5352 0.820878 13.6582 0.820878 13.8086C0.820878 13.959 0.790095 14.082 0.752471 14.082C0.714848 14.082 0.684065 14.1743 0.684065 14.2871C0.684065 14.3999 0.653282 14.4922 0.615658 14.4922C0.578035 14.4922 0.547252 14.6152 0.547252 14.7656C0.547252 14.916 0.516469 15.0391 0.478845 15.0391C0.441222 15.0391 0.410439 15.1929 0.410439 15.3809C0.410439 15.5688 0.379656 15.7227 0.342032 15.7227C0.302972 15.7227 0.273626 15.9277 0.273626 16.2012C0.273626 16.4746 0.24428 16.6797 0.205219 16.6797C0.164654 16.6797 0.136813 16.9304 0.136813 17.2949C0.136813 17.6595 0.108972 17.9102 0.0684065 17.9102C0.0229846 17.9102 0 23.6523 0 35C0 46.3477 0.0229846 52.0898 0.0684065 52.0898C0.108972 52.0898 0.136813 52.3405 0.136813 52.7051C0.136813 53.0696 0.164654 53.3203 0.205219 53.3203C0.24428 53.3203 0.273626 53.5254 0.273626 53.7988C0.273626 54.0723 0.302972 54.2773 0.342032 54.2773C0.379656 54.2773 0.410439 54.4312 0.410439 54.6191C0.410439 54.8071 0.441222 54.9609 0.478845 54.9609C0.516469 54.9609 0.547252 55.084 0.547252 55.2344C0.547252 55.3848 0.578035 55.5078 0.615658 55.5078C0.653282 55.5078 0.684065 55.6309 0.684065 55.7812C0.684065 55.9316 0.714848 56.0547 0.752471 56.0547C0.790095 56.0547 0.820878 56.147 0.820878 56.2598C0.820878 56.3726 0.851661 56.4648 0.889284 56.4648C0.926908 56.4648 0.957691 56.5571 0.957691 56.6699C0.957691 56.7827 0.988473 56.875 1.0261 56.875C1.06372 56.875 1.0945 56.9365 1.0945 57.0117C1.0945 57.0869 1.12529 57.1484 1.16291 57.1484C1.20053 57.1484 1.23132 57.2407 1.23132 57.3535C1.23132 57.4663 1.2621 57.5586 1.29972 57.5586C1.33735 57.5586 1.36813 57.6509 1.36813 57.7637C1.36813 57.8765 1.39891 57.9688 1.43654 57.9688C1.47416 57.9688 1.50494 58.0303 1.50494 58.1055C1.50494 58.1807 1.53573 58.2422 1.57335 58.2422C1.61097 58.2422 1.64176 58.3345 1.64176 58.4473C1.64176 58.5601 1.67254 58.6523 1.71016 58.6523C1.74779 58.6523 1.77857 58.7139 1.77857 58.7891C1.77857 58.8643 1.80935 58.9258 1.84697 58.9258C1.8846 58.9258 1.91538 58.9873 1.91538 59.0625C1.91538 59.1377 1.94616 59.1992 1.98379 59.1992C2.02141 59.1992 2.05219 59.2607 2.05219 59.3359C2.05219 59.4111 2.08298 59.4727 2.1206 59.4727C2.15822 59.4727 2.18901 59.5342 2.18901 59.6094C2.18901 59.6846 2.21979 59.7461 2.25741 59.7461C2.29504 59.7461 2.32582 59.8008 2.32582 59.8677C2.32582 59.9346 2.38739 60.0337 2.46263 60.0879C2.53788 60.1421 2.59945 60.2412 2.59945 60.3081C2.59945 60.3749 2.63023 60.4297 2.66785 60.4297C2.70548 60.4297 2.73626 60.4844 2.73626 60.5513C2.73626 60.6182 2.79782 60.7173 2.87307 60.7715C2.94832 60.8257 3.00988 60.9247 3.00988 60.9917C3.00988 61.0585 3.04067 61.1133 3.07829 61.1133C3.11591 61.1133 3.1467 61.1624 3.1467 61.2226C3.1467 61.2827 3.23905 61.4181 3.35192 61.5234C3.46479 61.6288 3.55714 61.7574 3.55714 61.8092C3.55714 61.861 3.6187 61.9477 3.69395 62.002C3.7692 62.0562 3.83076 62.1429 3.83076 62.1947C3.83076 62.2465 3.92311 62.3751 4.03598 62.4805C4.14885 62.5858 4.2412 62.707 4.2412 62.7498C4.2412 62.7925 4.51825 63.102 4.85686 63.4375C5.19547 63.773 5.47252 64.0804 5.47252 64.1208C5.47252 64.2165 5.92496 64.668 6.0208 64.668C6.0615 64.668 6.30728 64.8833 6.56702 65.1465C6.82676 65.4097 7.0746 65.625 7.11776 65.625C7.16086 65.625 7.28248 65.7173 7.3879 65.8301C7.49331 65.9429 7.61644 66.0352 7.66152 66.0352C7.7066 66.0352 7.82974 66.1274 7.93515 66.2402C8.04056 66.353 8.1637 66.4453 8.20878 66.4453C8.25386 66.4453 8.37699 66.5376 8.4824 66.6504C8.58782 66.7632 8.72333 66.8555 8.78346 66.8555C8.84366 66.8555 8.89284 66.8862 8.89284 66.9238C8.89284 66.9614 8.94763 66.9922 9.01453 66.9922C9.0815 66.9922 9.18063 67.0537 9.23487 67.1289C9.28912 67.2041 9.38824 67.2656 9.45521 67.2656C9.52211 67.2656 9.57691 67.2964 9.57691 67.334C9.57691 67.3716 9.6317 67.4023 9.6986 67.4023C9.76557 67.4023 9.86469 67.4639 9.91894 67.5391C9.97318 67.6143 10.0723 67.6758 10.1393 67.6758C10.2062 67.6758 10.261 67.7065 10.261 67.7441C10.261 67.7817 10.3225 67.8125 10.3978 67.8125C10.473 67.8125 10.5346 67.8433 10.5346 67.8809C10.5346 67.9185 10.5962 67.9492 10.6714 67.9492C10.7467 67.9492 10.8082 67.98 10.8082 68.0176C10.8082 68.0552 10.8698 68.0859 10.945 68.0859C11.0203 68.0859 11.0818 68.1167 11.0818 68.1543C11.0818 68.1919 11.1434 68.2227 11.2187 68.2227C11.2939 68.2227 11.3555 68.2534 11.3555 68.291C11.3555 68.3286 11.4478 68.3594 11.5607 68.3594C11.6736 68.3594 11.7659 68.3901 11.7659 68.4277C11.7659 68.4653 11.8275 68.4961 11.9027 68.4961C11.978 68.4961 12.0395 68.5269 12.0395 68.5645C12.0395 68.6021 12.1319 68.6328 12.2448 68.6328C12.3576 68.6328 12.45 68.6636 12.45 68.7012C12.45 68.7388 12.5115 68.7695 12.5868 68.7695C12.662 68.7695 12.7236 68.8003 12.7236 68.8379C12.7236 68.8755 12.816 68.9062 12.9288 68.9062C13.0417 68.9062 13.134 68.937 13.134 68.9746C13.134 69.0122 13.2264 69.043 13.3393 69.043C13.4521 69.043 13.5445 69.0737 13.5445 69.1113C13.5445 69.1489 13.6368 69.1797 13.7497 69.1797C13.8626 69.1797 13.9549 69.2104 13.9549 69.248C13.9549 69.2856 14.1088 69.3164 14.297 69.3164C14.4851 69.3164 14.639 69.3472 14.639 69.3848C14.639 69.4224 14.7313 69.4531 14.8442 69.4531C14.9571 69.4531 15.0494 69.4839 15.0494 69.5215C15.0494 69.5591 15.2033 69.5898 15.3915 69.5898C15.5796 69.5898 15.7335 69.6206 15.7335 69.6582C15.7335 69.6972 15.9387 69.7266 16.2123 69.7266C16.486 69.7266 16.6912 69.7559 16.6912 69.7949C16.6912 69.8355 16.942 69.8633 17.3068 69.8633C17.6716 69.8633 17.9225 69.8911 17.9225 69.9316C17.9225 69.977 23.6914 70 35.0925 70C46.4936 70 52.2625 69.977 52.2625 69.9316C52.2625 69.8918 52.4905 69.8633 52.8098 69.8633C53.129 69.8633 53.357 69.8348 53.357 69.7949C53.357 69.7559 53.5623 69.7266 53.8359 69.7266C54.1095 69.7266 54.3147 69.6972 54.3147 69.6582C54.3147 69.6206 54.4687 69.5898 54.6568 69.5898C54.8449 69.5898 54.9988 69.5591 54.9988 69.5215C54.9988 69.4839 55.0911 69.4531 55.204 69.4531C55.3169 69.4531 55.4092 69.4224 55.4092 69.3848C55.4092 69.3472 55.5324 69.3164 55.6829 69.3164C55.8334 69.3164 55.9565 69.2856 55.9565 69.248C55.9565 69.2104 56.0796 69.1797 56.2301 69.1797C56.3806 69.1797 56.5037 69.1489 56.5037 69.1113C56.5037 69.0737 56.5961 69.043 56.709 69.043C56.8218 69.043 56.9142 69.0122 56.9142 68.9746C56.9142 68.937 57.0065 68.9062 57.1194 68.9062C57.2323 68.9062 57.3246 68.8755 57.3246 68.8379C57.3246 68.8003 57.3862 68.7695 57.4614 68.7695C57.5367 68.7695 57.5982 68.7388 57.5982 68.7012C57.5982 68.6636 57.6906 68.6328 57.8035 68.6328C57.9163 68.6328 58.0087 68.6021 58.0087 68.5645C58.0087 68.5269 58.0703 68.4961 58.1455 68.4961C58.2207 68.4961 58.2823 68.4653 58.2823 68.4277C58.2823 68.3901 58.3747 68.3594 58.4875 68.3594C58.6004 68.3594 58.6927 68.3286 58.6927 68.291C58.6927 68.2534 58.7543 68.2227 58.8296 68.2227C58.9048 68.2227 58.9664 68.1919 58.9664 68.1543C58.9664 68.1167 59.0279 68.0859 59.1032 68.0859C59.1784 68.0859 59.24 68.0552 59.24 68.0176C59.24 67.98 59.3016 67.9492 59.3768 67.9492C59.4521 67.9492 59.5136 67.9185 59.5136 67.8809C59.5136 67.8433 59.5752 67.8125 59.6504 67.8125C59.7257 67.8125 59.7873 67.7817 59.7873 67.7441C59.7873 67.7065 59.8421 67.6758 59.909 67.6758C59.9759 67.6758 60.075 67.6143 60.1293 67.5391C60.1835 67.4639 60.2826 67.4023 60.3496 67.4023C60.4165 67.4023 60.4713 67.3716 60.4713 67.334C60.4713 67.2964 60.5261 67.2656 60.593 67.2656C60.66 67.2656 60.7591 67.2041 60.8134 67.1289C60.8676 67.0537 60.9667 66.9922 61.0337 66.9922C61.1006 66.9922 61.1554 66.9614 61.1554 66.9238C61.1554 66.8862 61.2046 66.8555 61.2648 66.8555C61.3249 66.8555 61.4604 66.7632 61.5658 66.6504C61.6712 66.5376 61.7944 66.4453 61.8394 66.4453C61.8845 66.4453 62.0077 66.353 62.1131 66.2402C62.2185 66.1274 62.3416 66.0352 62.3867 66.0352C62.4318 66.0352 62.5549 65.9429 62.6603 65.8301C62.7657 65.7173 62.8872 65.625 62.9301 65.625C62.9731 65.625 63.2518 65.3789 63.5496 65.0781C63.8474 64.7773 64.1245 64.5312 64.1655 64.5312C64.2621 64.5312 64.5757 64.2178 64.5757 64.1213C64.5757 64.0803 64.822 63.8034 65.123 63.5059C65.424 63.2083 65.6702 62.9303 65.6702 62.8882C65.6702 62.8461 65.7933 62.6933 65.9438 62.5488C66.0943 62.4043 66.2175 62.2444 66.2175 62.1933C66.2175 62.1422 66.279 62.0562 66.3543 62.002C66.4295 61.9477 66.4911 61.861 66.4911 61.8092C66.4911 61.7574 66.5834 61.6288 66.6963 61.5234C66.8092 61.4181 66.9015 61.2827 66.9015 61.2226C66.9015 61.1624 66.9323 61.1133 66.9699 61.1133C67.0076 61.1133 67.0383 61.0585 67.0383 60.9917C67.0383 60.9247 67.0999 60.8257 67.1752 60.7715C67.2504 60.7173 67.312 60.6182 67.312 60.5513C67.312 60.4844 67.3428 60.4297 67.3804 60.4297C67.418 60.4297 67.4488 60.3749 67.4488 60.3081C67.4488 60.2412 67.5103 60.1421 67.5856 60.0879C67.6608 60.0337 67.7224 59.9346 67.7224 59.8677C67.7224 59.8008 67.7532 59.7461 67.7908 59.7461C67.8284 59.7461 67.8592 59.6846 67.8592 59.6094C67.8592 59.5342 67.89 59.4727 67.9276 59.4727C67.9652 59.4727 67.996 59.4111 67.996 59.3359C67.996 59.2607 68.0268 59.1992 68.0644 59.1992C68.1021 59.1992 68.1328 59.1377 68.1328 59.0625C68.1328 58.9873 68.1636 58.9258 68.2012 58.9258C68.2389 58.9258 68.2697 58.8643 68.2697 58.7891C68.2697 58.7139 68.3004 58.6523 68.3381 58.6523C68.3757 58.6523 68.4065 58.5908 68.4065 58.5156C68.4065 58.4404 68.4372 58.3789 68.4749 58.3789C68.5125 58.3789 68.5433 58.2866 68.5433 58.1738C68.5433 58.061 68.5741 57.9688 68.6117 57.9688C68.6493 57.9688 68.6801 57.8765 68.6801 57.7637C68.6801 57.6509 68.7109 57.5586 68.7485 57.5586C68.7861 57.5586 68.8169 57.4663 68.8169 57.3535C68.8169 57.2407 68.8477 57.1484 68.8853 57.1484C68.9229 57.1484 68.9537 57.0869 68.9537 57.0117C68.9537 56.9365 68.9845 56.875 69.0221 56.875C69.0598 56.875 69.0905 56.7827 69.0905 56.6699C69.0905 56.5571 69.1213 56.4648 69.1589 56.4648C69.1966 56.4648 69.2273 56.3726 69.2273 56.2598C69.2273 56.147 69.2581 56.0547 69.2958 56.0547C69.3334 56.0547 69.3642 55.9316 69.3642 55.7812C69.3642 55.6309 69.3949 55.5078 69.4326 55.5078C69.4702 55.5078 69.501 55.3848 69.501 55.2344C69.501 55.084 69.5318 54.9609 69.5694 54.9609C69.607 54.9609 69.6378 54.8071 69.6378 54.6191C69.6378 54.4312 69.6686 54.2773 69.7062 54.2773C69.7453 54.2773 69.7746 54.0723 69.7746 53.7988C69.7746 53.5254 69.8039 53.3203 69.843 53.3203C69.8836 53.3203 69.9114 53.0696 69.9114 52.7051C69.9114 52.3405 69.9393 52.0898 69.9798 52.0898C70.0252 52.0898 69.9798 46.3477 69.9798 35C69.9798 23.6523 70.0252 17.9102 69.9798 17.9102C69.9393 17.9102 69.9114 17.6595 69.9114 17.2949C69.9114 16.9304 69.8836 16.6797 69.843 16.6797C69.8039 16.6797 69.7746 16.4746 69.7746 16.2012C69.7746 15.9277 69.7453 15.7227 69.7062 15.7227C69.6686 15.7227 69.6378 15.5688 69.6378 15.3809C69.6378 15.1929 69.607 15.0391 69.5694 15.0391C69.5318 15.0391 69.501 14.916 69.501 14.7656C69.501 14.6152 69.4702 14.4922 69.4326 14.4922C69.3949 14.4922 69.3642 14.3999 69.3642 14.2871C69.3642 14.1743 69.3334 14.082 69.2958 14.082C69.2581 14.082 69.2273 13.959 69.2273 13.8086C69.2273 13.6582 69.1966 13.5352 69.1589 13.5352C69.1213 13.5352 69.0905 13.4429 69.0905 13.3301C69.0905 13.2173 69.0598 13.125 69.0221 13.125C68.9845 13.125 68.9537 13.0635 68.9537 12.9883C68.9537 12.9131 68.9229 12.8516 68.8853 12.8516C68.8477 12.8516 68.8169 12.7593 68.8169 12.6465C68.8169 12.5337 68.7861 12.4414 68.7485 12.4414C68.7109 12.4414 68.6801 12.3491 68.6801 12.2363C68.6801 12.1235 68.6493 12.0312 68.6117 12.0312C68.5741 12.0312 68.5433 11.9697 68.5433 11.8945C68.5433 11.8193 68.5125 11.7578 68.4749 11.7578C68.4372 11.7578 68.4065 11.6963 68.4065 11.6211C68.4065 11.5459 68.3757 11.4844 68.3381 11.4844C68.3004 11.4844 68.2697 11.3921 68.2697 11.2793C68.2697 11.1665 68.2389 11.0742 68.2012 11.0742C68.1636 11.0742 68.1328 11.0127 68.1328 10.9375C68.1328 10.8623 68.1021 10.8008 68.0644 10.8008C68.0268 10.8008 67.996 10.7393 67.996 10.6641C67.996 10.5889 67.9652 10.5273 67.9276 10.5273C67.89 10.5273 67.8592 10.4658 67.8592 10.3906C67.8592 10.3154 67.8284 10.2539 67.7908 10.2539C67.7532 10.2539 67.7224 10.1991 67.7224 10.1323C67.7224 10.0654 67.6608 9.96632 67.5856 9.91211C67.5103 9.8579 67.4488 9.75885 67.4488 9.69192C67.4488 9.62507 67.418 9.57031 67.3804 9.57031C67.3428 9.57031 67.312 9.51556 67.312 9.4487C67.312 9.38178 67.2504 9.28272 67.1752 9.22852C67.0999 9.17431 67.0383 9.07525 67.0383 9.00833C67.0383 8.94147 67.0076 8.88672 66.9699 8.88672C66.9323 8.88672 66.9015 8.83757 66.9015 8.77741C66.9015 8.71732 66.8092 8.5819 66.6963 8.47656C66.5834 8.37122 66.4911 8.24257 66.4911 8.19082C66.4911 8.139 66.4295 8.05226 66.3543 7.99805C66.279 7.94384 66.2175 7.85777 66.2175 7.80671C66.2175 7.75564 66.0943 7.59568 65.9438 7.45117C65.7933 7.30666 65.6702 7.15381 65.6702 7.11143C65.6702 7.06904 65.4547 6.82206 65.1914 6.5625C64.928 6.30294 64.7125 6.05732 64.7125 6.01665C64.7125 5.92088 64.2607 5.46875 64.1649 5.46875C64.1246 5.46875 63.8169 5.19189 63.4812 4.85352C63.1455 4.51514 62.8302 4.23828 62.7807 4.23828C62.7311 4.23828 62.6462 4.17676 62.5919 4.10156C62.5377 4.02637 62.4516 3.96484 62.4005 3.96484C62.3494 3.96484 62.1893 3.8418 62.0447 3.69141C61.9001 3.54102 61.74 3.41797 61.6889 3.41797C61.6378 3.41797 61.5517 3.35645 61.4974 3.28125C61.4432 3.20605 61.3441 3.14453 61.2771 3.14453C61.2102 3.14453 61.1554 3.11377 61.1554 3.07617C61.1554 3.03857 61.1006 3.00781 61.0337 3.00781C60.9667 3.00781 60.8676 2.94629 60.8134 2.87109C60.7591 2.7959 60.66 2.73438 60.593 2.73438C60.5261 2.73438 60.4713 2.70361 60.4713 2.66602C60.4713 2.62842 60.4165 2.59766 60.3496 2.59766C60.2826 2.59766 60.1835 2.53613 60.1293 2.46094C60.075 2.38574 59.9759 2.32422 59.909 2.32422C59.8421 2.32422 59.7873 2.29346 59.7873 2.25586C59.7873 2.21826 59.7257 2.1875 59.6504 2.1875C59.5752 2.1875 59.5136 2.15674 59.5136 2.11914C59.5136 2.08154 59.4521 2.05078 59.3768 2.05078C59.3016 2.05078 59.24 2.02002 59.24 1.98242C59.24 1.94482 59.1784 1.91406 59.1032 1.91406C59.0279 1.91406 58.9664 1.8833 58.9664 1.8457C58.9664 1.80811 58.9048 1.77734 58.8296 1.77734C58.7543 1.77734 58.6927 1.74658 58.6927 1.70898C58.6927 1.67139 58.6312 1.64062 58.5559 1.64062C58.4807 1.64062 58.4191 1.60986 58.4191 1.57227C58.4191 1.53467 58.3268 1.50391 58.2139 1.50391C58.101 1.50391 58.0087 1.47314 58.0087 1.43555C58.0087 1.39795 57.9163 1.36719 57.8035 1.36719C57.6906 1.36719 57.5982 1.33643 57.5982 1.29883C57.5982 1.26123 57.5367 1.23047 57.4614 1.23047C57.3862 1.23047 57.3246 1.19971 57.3246 1.16211C57.3246 1.12451 57.2323 1.09375 57.1194 1.09375C57.0065 1.09375 56.9142 1.06299 56.9142 1.02539C56.9142 0.987793 56.8218 0.957031 56.709 0.957031C56.5961 0.957031 56.5037 0.92627 56.5037 0.888672C56.5037 0.851074 56.3806 0.820312 56.2301 0.820312C56.0796 0.820312 55.9565 0.789551 55.9565 0.751953C55.9565 0.714355 55.8641 0.683594 55.7513 0.683594C55.6384 0.683594 55.5461 0.652832 55.5461 0.615234C55.5461 0.577637 55.4229 0.546875 55.2724 0.546875C55.1219 0.546875 54.9988 0.516113 54.9988 0.478516C54.9988 0.440918 54.8449 0.410156 54.6568 0.410156C54.4687 0.410156 54.3147 0.379395 54.3147 0.341797C54.3147 0.302764 54.1095 0.273438 53.8359 0.273438C53.5623 0.273438 53.357 0.244111 53.357 0.205078C53.357 0.164541 53.1062 0.136719 52.7414 0.136719C52.3766 0.136719 52.1257 0.108896 52.1257 0.0683594C52.1257 0.0229688 46.3796 0 35.0241 0C23.6686 0 17.9225 0.0229688 17.9225 0.0683594ZM50.8944 6.2207C50.8944 6.26247 51.2137 6.28906 51.7153 6.28906C52.2169 6.28906 52.5362 6.31565 52.5362 6.35742C52.5362 6.39543 52.7186 6.42578 52.9466 6.42578C53.1746 6.42578 53.357 6.45613 53.357 6.49414C53.357 6.53174 53.4802 6.5625 53.6307 6.5625C53.7812 6.5625 53.9043 6.59326 53.9043 6.63086C53.9043 6.66846 54.0274 6.69922 54.1779 6.69922C54.3284 6.69922 54.4515 6.72998 54.4515 6.76758C54.4515 6.80518 54.5439 6.83594 54.6568 6.83594C54.7696 6.83594 54.862 6.8667 54.862 6.9043C54.862 6.94189 54.9543 6.97266 55.0672 6.97266C55.1801 6.97266 55.2724 7.00342 55.2724 7.04102C55.2724 7.07861 55.3648 7.10938 55.4776 7.10938C55.5905 7.10938 55.6829 7.14014 55.6829 7.17773C55.6829 7.21533 55.7444 7.24609 55.8197 7.24609C55.8949 7.24609 55.9565 7.27686 55.9565 7.31445C55.9565 7.35205 56.0181 7.38281 56.0933 7.38281C56.1686 7.38281 56.2301 7.41357 56.2301 7.45117C56.2301 7.48877 56.2917 7.51953 56.3669 7.51953C56.4422 7.51953 56.5037 7.55029 56.5037 7.58789C56.5037 7.62549 56.5653 7.65625 56.6406 7.65625C56.7158 7.65625 56.7774 7.68701 56.7774 7.72461C56.7774 7.76221 56.8389 7.79297 56.9142 7.79297C56.9894 7.79297 57.051 7.82373 57.051 7.86133C57.051 7.89893 57.1058 7.92969 57.1727 7.92969C57.2397 7.92969 57.3388 7.99121 57.393 8.06641C57.4473 8.1416 57.5464 8.20312 57.6134 8.20312C57.6803 8.20312 57.7351 8.23389 57.7351 8.27148C57.7351 8.30908 57.7899 8.33984 57.8568 8.33984C57.9237 8.33984 58.0228 8.40137 58.0771 8.47656C58.1313 8.55176 58.2181 8.61328 58.27 8.61328C58.3218 8.61328 58.4505 8.70557 58.5559 8.81836C58.6614 8.93115 58.7817 9.02344 58.8233 9.02344C58.93 9.02344 61.0186 11.1223 61.0186 11.2295C61.0186 11.2779 61.0801 11.3618 61.1554 11.416C61.2306 11.4702 61.2922 11.557 61.2922 11.6088C61.2922 11.6605 61.3845 11.7892 61.4974 11.8945C61.6103 11.9999 61.7026 12.1353 61.7026 12.1954C61.7026 12.2555 61.7334 12.3047 61.771 12.3047C61.8087 12.3047 61.8394 12.3594 61.8394 12.4263C61.8394 12.4932 61.901 12.5923 61.9763 12.6465C62.0515 12.7007 62.1131 12.7997 62.1131 12.8667C62.1131 12.9335 62.1439 12.9883 62.1815 12.9883C62.2191 12.9883 62.2499 13.0498 62.2499 13.125C62.2499 13.2002 62.2807 13.2617 62.3183 13.2617C62.3559 13.2617 62.3867 13.3232 62.3867 13.3984C62.3867 13.4736 62.4175 13.5352 62.4551 13.5352C62.4927 13.5352 62.5235 13.5967 62.5235 13.6719C62.5235 13.7471 62.5543 13.8086 62.5919 13.8086C62.6295 13.8086 62.6603 13.8701 62.6603 13.9453C62.6603 14.0205 62.6911 14.082 62.7287 14.082C62.7664 14.082 62.7971 14.1436 62.7971 14.2188C62.7971 14.2939 62.8279 14.3555 62.8655 14.3555C62.9032 14.3555 62.934 14.4478 62.934 14.5605C62.934 14.6733 62.9647 14.7656 63.0024 14.7656C63.04 14.7656 63.0708 14.8579 63.0708 14.9707C63.0708 15.0835 63.1015 15.1758 63.1392 15.1758C63.1768 15.1758 63.2076 15.2681 63.2076 15.3809C63.2076 15.4937 63.2384 15.5859 63.276 15.5859C63.3136 15.5859 63.3444 15.709 63.3444 15.8594C63.3444 16.0098 63.3752 16.1328 63.4128 16.1328C63.4504 16.1328 63.4812 16.2559 63.4812 16.4062C63.4812 16.5566 63.512 16.6797 63.5496 16.6797C63.5876 16.6797 63.618 16.862 63.618 17.0898C63.618 17.3177 63.6484 17.5 63.6864 17.5C63.7285 17.5 63.7548 17.8418 63.7548 18.3887C63.7548 18.9355 63.7812 19.2773 63.8232 19.2773C63.8687 19.2773 64.7125 24.4954 64.7125 34.9316C64.7125 45.3679 63.8687 50.7227 63.8232 50.7227C63.7812 50.7227 63.7548 51.0645 63.7548 51.6113C63.7548 52.1582 63.7285 52.5 63.6864 52.5C63.6484 52.5 63.618 52.6823 63.618 52.9102C63.618 53.138 63.5876 53.3203 63.5496 53.3203C63.512 53.3203 63.4812 53.4434 63.4812 53.5938C63.4812 53.7441 63.4504 53.8672 63.4128 53.8672C63.3752 53.8672 63.3444 53.9902 63.3444 54.1406C63.3444 54.291 63.3136 54.4141 63.276 54.4141C63.2384 54.4141 63.2076 54.5063 63.2076 54.6191C63.2076 54.7319 63.1768 54.8242 63.1392 54.8242C63.1015 54.8242 63.0708 54.9165 63.0708 55.0293C63.0708 55.1421 63.04 55.2344 63.0024 55.2344C62.9647 55.2344 62.934 55.3267 62.934 55.4395C62.934 55.5522 62.9032 55.6445 62.8655 55.6445C62.8279 55.6445 62.7971 55.7061 62.7971 55.7812C62.7971 55.8564 62.7664 55.918 62.7287 55.918C62.6911 55.918 62.6603 55.9795 62.6603 56.0547C62.6603 56.1299 62.6295 56.1914 62.5919 56.1914C62.5543 56.1914 62.5235 56.2529 62.5235 56.3281C62.5235 56.4033 62.4927 56.4648 62.4551 56.4648C62.4175 56.4648 62.3867 56.5264 62.3867 56.6016C62.3867 56.6768 62.3559 56.7383 62.3183 56.7383C62.2807 56.7383 62.2499 56.7998 62.2499 56.875C62.2499 56.9502 62.2191 57.0117 62.1815 57.0117C62.1439 57.0117 62.1131 57.0665 62.1131 57.1333C62.1131 57.2003 62.0515 57.2993 61.9763 57.3535C61.901 57.4077 61.8394 57.5068 61.8394 57.5737C61.8394 57.6406 61.8087 57.6953 61.771 57.6953C61.7334 57.6953 61.7026 57.7445 61.7026 57.8046C61.7026 57.8647 61.6103 58.0001 61.4974 58.1055C61.3845 58.2108 61.2922 58.3395 61.2922 58.3912C61.2922 58.443 61.2306 58.5298 61.1554 58.584C61.0801 58.6382 61.0186 58.7221 61.0186 58.7705C61.0186 58.8769 59.0673 60.8398 58.9616 60.8398C58.9207 60.8398 58.769 60.9629 58.6243 61.1133C58.4797 61.2637 58.3197 61.3867 58.2686 61.3867C58.2175 61.3867 58.1313 61.4482 58.0771 61.5234C58.0228 61.5986 57.9305 61.6602 57.8719 61.6602C57.8132 61.6602 57.7209 61.7217 57.6667 61.7969C57.6124 61.8721 57.5133 61.9336 57.4463 61.9336C57.3794 61.9336 57.3246 61.9644 57.3246 62.002C57.3246 62.0396 57.2631 62.0703 57.1878 62.0703C57.1126 62.0703 57.051 62.1011 57.051 62.1387C57.051 62.1763 56.9894 62.207 56.9142 62.207C56.8389 62.207 56.7774 62.2378 56.7774 62.2754C56.7774 62.313 56.7158 62.3438 56.6406 62.3438C56.5653 62.3438 56.5037 62.3745 56.5037 62.4121C56.5037 62.4497 56.4422 62.4805 56.3669 62.4805C56.2917 62.4805 56.2301 62.5112 56.2301 62.5488C56.2301 62.5864 56.1686 62.6172 56.0933 62.6172C56.0181 62.6172 55.9565 62.6479 55.9565 62.6855C55.9565 62.7231 55.8949 62.7539 55.8197 62.7539C55.7444 62.7539 55.6829 62.7847 55.6829 62.8223C55.6829 62.8599 55.5905 62.8906 55.4776 62.8906C55.3648 62.8906 55.2724 62.9214 55.2724 62.959C55.2724 62.9966 55.1801 63.0273 55.0672 63.0273C54.9543 63.0273 54.862 63.0581 54.862 63.0957C54.862 63.1333 54.7696 63.1641 54.6568 63.1641C54.5439 63.1641 54.4515 63.1948 54.4515 63.2324C54.4515 63.27 54.3284 63.3008 54.1779 63.3008C54.0274 63.3008 53.9043 63.3315 53.9043 63.3691C53.9043 63.4067 53.7812 63.4375 53.6307 63.4375C53.4802 63.4375 53.357 63.4683 53.357 63.5059C53.357 63.5439 53.1746 63.5742 52.9466 63.5742C52.7186 63.5742 52.5362 63.6046 52.5362 63.6426C52.5362 63.6849 52.1714 63.7109 51.5785 63.7109C50.9856 63.7109 50.6208 63.737 50.6208 63.7793C50.6208 63.8247 45.3535 63.8477 34.9557 63.8477C24.5579 63.8477 19.2906 63.8247 19.2906 63.7793C19.2906 63.7373 18.9486 63.7109 18.4013 63.7109C17.8541 63.7109 17.5121 63.6846 17.5121 63.6426C17.5121 63.6046 17.3296 63.5742 17.1016 63.5742C16.8736 63.5742 16.6912 63.5439 16.6912 63.5059C16.6912 63.4683 16.568 63.4375 16.4176 63.4375C16.2671 63.4375 16.1439 63.4067 16.1439 63.3691C16.1439 63.3315 16.0208 63.3008 15.8703 63.3008C15.7198 63.3008 15.5967 63.27 15.5967 63.2324C15.5967 63.1948 15.5043 63.1641 15.3915 63.1641C15.2786 63.1641 15.1862 63.1333 15.1862 63.0957C15.1862 63.0581 15.0939 63.0273 14.981 63.0273C14.8681 63.0273 14.7758 62.9966 14.7758 62.959C14.7758 62.9214 14.6834 62.8906 14.5706 62.8906C14.4577 62.8906 14.3654 62.8599 14.3654 62.8223C14.3654 62.7847 14.3038 62.7539 14.2285 62.7539C14.1533 62.7539 14.0917 62.7231 14.0917 62.6855C14.0917 62.6479 14.0302 62.6172 13.9549 62.6172C13.8797 62.6172 13.8181 62.5864 13.8181 62.5488C13.8181 62.5112 13.7565 62.4805 13.6813 62.4805C13.606 62.4805 13.5445 62.4497 13.5445 62.4121C13.5445 62.3745 13.4829 62.3438 13.4077 62.3438C13.3324 62.3438 13.2709 62.313 13.2709 62.2754C13.2709 62.2378 13.2093 62.207 13.134 62.207C13.0588 62.207 12.9972 62.1763 12.9972 62.1387C12.9972 62.1011 12.9424 62.0703 12.8755 62.0703C12.8086 62.0703 12.7094 62.0088 12.6552 61.9336C12.601 61.8584 12.5018 61.7969 12.4349 61.7969C12.368 61.7969 12.3132 61.7661 12.3132 61.7285C12.3132 61.6909 12.264 61.6602 12.2038 61.6602C12.1437 61.6602 12.0081 61.5679 11.9027 61.4551C11.7973 61.3423 11.6742 61.25 11.6291 61.25C11.584 61.25 11.4609 61.1577 11.3555 61.0449C11.2501 60.9321 11.1297 60.8398 11.088 60.8398C10.9891 60.8398 9.02965 58.8818 9.02965 58.7829C9.02965 58.7413 8.93731 58.621 8.82443 58.5156C8.71156 58.4103 8.61922 58.2816 8.61922 58.2299C8.61922 58.1781 8.55765 58.0913 8.4824 58.0371C8.40716 57.9829 8.34559 57.8838 8.34559 57.8169C8.34559 57.7501 8.31481 57.6953 8.27718 57.6953C8.23956 57.6953 8.20878 57.6406 8.20878 57.5737C8.20878 57.5068 8.14721 57.4077 8.07196 57.3535C7.99672 57.2993 7.93515 57.2003 7.93515 57.1333C7.93515 57.0665 7.90437 57.0117 7.86674 57.0117C7.82912 57.0117 7.79834 56.9502 7.79834 56.875C7.79834 56.7998 7.76755 56.7383 7.72993 56.7383C7.69231 56.7383 7.66152 56.6768 7.66152 56.6016C7.66152 56.5264 7.63074 56.4648 7.59312 56.4648C7.55549 56.4648 7.52471 56.4033 7.52471 56.3281C7.52471 56.2529 7.49393 56.1914 7.45631 56.1914C7.41868 56.1914 7.3879 56.1299 7.3879 56.0547C7.3879 55.9795 7.35712 55.918 7.31949 55.918C7.28187 55.918 7.25109 55.8564 7.25109 55.7812C7.25109 55.7061 7.2203 55.6445 7.18268 55.6445C7.14506 55.6445 7.11427 55.5522 7.11427 55.4395C7.11427 55.3267 7.08349 55.2344 7.04587 55.2344C7.00824 55.2344 6.97746 55.1421 6.97746 55.0293C6.97746 54.9165 6.94668 54.8242 6.90905 54.8242C6.87143 54.8242 6.84065 54.7319 6.84065 54.6191C6.84065 54.5063 6.80986 54.4141 6.77224 54.4141C6.73462 54.4141 6.70383 54.291 6.70383 54.1406C6.70383 53.9902 6.67305 53.8672 6.63543 53.8672C6.5978 53.8672 6.56702 53.7441 6.56702 53.5938C6.56702 53.4434 6.53624 53.3203 6.49861 53.3203C6.46058 53.3203 6.43021 53.138 6.43021 52.9102C6.43021 52.6823 6.39984 52.5 6.3618 52.5C6.31973 52.5 6.2934 52.1582 6.2934 51.6113C6.2934 51.0645 6.26706 50.7227 6.22499 50.7227C6.17957 50.7227 6.15658 45.4134 6.15658 34.9316C6.15658 24.4499 6.17957 19.1406 6.22499 19.1406C6.26679 19.1406 6.2934 18.8216 6.2934 18.3203C6.2934 17.819 6.32001 17.5 6.3618 17.5C6.39984 17.5 6.43021 17.3177 6.43021 17.0898C6.43021 16.862 6.46058 16.6797 6.49861 16.6797C6.53624 16.6797 6.56702 16.5566 6.56702 16.4062C6.56702 16.2559 6.5978 16.1328 6.63543 16.1328C6.67305 16.1328 6.70383 16.0098 6.70383 15.8594C6.70383 15.709 6.73462 15.5859 6.77224 15.5859C6.80986 15.5859 6.84065 15.4937 6.84065 15.3809C6.84065 15.2681 6.87143 15.1758 6.90905 15.1758C6.94668 15.1758 6.97746 15.0835 6.97746 14.9707C6.97746 14.8579 7.00824 14.7656 7.04587 14.7656C7.08349 14.7656 7.11427 14.6733 7.11427 14.5605C7.11427 14.4478 7.14506 14.3555 7.18268 14.3555C7.2203 14.3555 7.25109 14.2939 7.25109 14.2188C7.25109 14.1436 7.28187 14.082 7.31949 14.082C7.35712 14.082 7.3879 14.0205 7.3879 13.9453C7.3879 13.8701 7.41868 13.8086 7.45631 13.8086C7.49393 13.8086 7.52471 13.7471 7.52471 13.6719C7.52471 13.5967 7.55549 13.5352 7.59312 13.5352C7.63074 13.5352 7.66152 13.4736 7.66152 13.3984C7.66152 13.3232 7.69231 13.2617 7.72993 13.2617C7.76755 13.2617 7.79834 13.2002 7.79834 13.125C7.79834 13.0498 7.82912 12.9883 7.86674 12.9883C7.90437 12.9883 7.93515 12.9335 7.93515 12.8667C7.93515 12.7997 7.99672 12.7007 8.07196 12.6465C8.14721 12.5923 8.20878 12.4932 8.20878 12.4263C8.20878 12.3594 8.23956 12.3047 8.27718 12.3047C8.31481 12.3047 8.34559 12.2499 8.34559 12.1831C8.34559 12.1162 8.40716 12.0171 8.4824 11.9629C8.55765 11.9087 8.61922 11.8219 8.61922 11.7701C8.61922 11.7184 8.71156 11.5897 8.82443 11.4844C8.93731 11.379 9.02965 11.2588 9.02965 11.2172C9.02965 11.1106 11.13 9.02344 11.2372 9.02344C11.2856 9.02344 11.3696 8.96191 11.4239 8.88672C11.4781 8.81152 11.5649 8.75 11.6168 8.75C11.6686 8.75 11.7973 8.65771 11.9027 8.54492C12.0081 8.43213 12.1437 8.33984 12.2038 8.33984C12.264 8.33984 12.3132 8.30908 12.3132 8.27148C12.3132 8.23389 12.368 8.20312 12.4349 8.20312C12.5018 8.20312 12.601 8.1416 12.6552 8.06641C12.7094 7.99121 12.8086 7.92969 12.8755 7.92969C12.9424 7.92969 12.9972 7.89893 12.9972 7.86133C12.9972 7.82373 13.0588 7.79297 13.134 7.79297C13.2093 7.79297 13.2709 7.76221 13.2709 7.72461C13.2709 7.68701 13.3324 7.65625 13.4077 7.65625C13.4829 7.65625 13.5445 7.62549 13.5445 7.58789C13.5445 7.55029 13.606 7.51953 13.6813 7.51953C13.7565 7.51953 13.8181 7.48877 13.8181 7.45117C13.8181 7.41357 13.8797 7.38281 13.9549 7.38281C14.0302 7.38281 14.0917 7.35205 14.0917 7.31445C14.0917 7.27686 14.1533 7.24609 14.2285 7.24609C14.3038 7.24609 14.3654 7.21533 14.3654 7.17773C14.3654 7.14014 14.4577 7.10938 14.5706 7.10938C14.6834 7.10938 14.7758 7.07861 14.7758 7.04102C14.7758 7.00342 14.8681 6.97266 14.981 6.97266C15.0939 6.97266 15.1862 6.94189 15.1862 6.9043C15.1862 6.8667 15.2786 6.83594 15.3915 6.83594C15.5043 6.83594 15.5967 6.80518 15.5967 6.76758C15.5967 6.72998 15.7198 6.69922 15.8703 6.69922C16.0208 6.69922 16.1439 6.66846 16.1439 6.63086C16.1439 6.59326 16.2671 6.5625 16.4176 6.5625C16.568 6.5625 16.6912 6.53174 16.6912 6.49414C16.6912 6.45613 16.8736 6.42578 17.1016 6.42578C17.3296 6.42578 17.5121 6.39543 17.5121 6.35742C17.5121 6.31565 17.8313 6.28906 18.3329 6.28906C18.8346 6.28906 19.1538 6.26247 19.1538 6.2207C19.1538 6.17531 24.4895 6.15234 35.0241 6.15234C45.5587 6.15234 50.8944 6.17531 50.8944 6.2207ZM52.8098 11.8262C52.8098 11.8638 52.7174 11.8945 52.6046 11.8945C52.4917 11.8945 52.3994 11.9253 52.3994 11.9629C52.3994 12.0005 52.307 12.0312 52.1941 12.0312C52.0813 12.0312 51.9889 12.062 51.9889 12.0996C51.9889 12.1372 51.9273 12.168 51.8521 12.168C51.7769 12.168 51.7153 12.1987 51.7153 12.2363C51.7153 12.2739 51.6605 12.3047 51.5936 12.3047C51.5266 12.3047 51.4275 12.3662 51.3733 12.4414C51.319 12.5166 51.2347 12.5781 51.1859 12.5781C51.0702 12.5781 50.2103 13.4374 50.2103 13.553C50.2103 13.6017 50.1488 13.686 50.0735 13.7402C49.9983 13.7944 49.9367 13.8935 49.9367 13.9604C49.9367 14.0273 49.9059 14.082 49.8683 14.082C49.8307 14.082 49.7999 14.1436 49.7999 14.2188C49.7999 14.2939 49.7691 14.3555 49.7315 14.3555C49.6939 14.3555 49.6631 14.417 49.6631 14.4922C49.6631 14.5674 49.6323 14.6289 49.5947 14.6289C49.5571 14.6289 49.5263 14.7212 49.5263 14.834C49.5263 14.9468 49.4955 15.0391 49.4579 15.0391C49.4203 15.0391 49.3895 15.1929 49.3895 15.3809C49.3895 15.5688 49.3587 15.7227 49.3211 15.7227C49.2812 15.7227 49.2527 15.9505 49.2527 16.2695C49.2527 16.5886 49.2812 16.8164 49.3211 16.8164C49.3587 16.8164 49.3895 16.9702 49.3895 17.1582C49.3895 17.3462 49.4203 17.5 49.4579 17.5C49.4955 17.5 49.5263 17.5923 49.5263 17.7051C49.5263 17.8179 49.5571 17.9102 49.5947 17.9102C49.6323 17.9102 49.6631 17.9717 49.6631 18.0469C49.6631 18.1221 49.6939 18.1836 49.7315 18.1836C49.7691 18.1836 49.7999 18.2451 49.7999 18.3203C49.7999 18.3955 49.8307 18.457 49.8683 18.457C49.9059 18.457 49.9367 18.5062 49.9367 18.5663C49.9367 18.6264 50.0291 18.7618 50.1419 18.8672C50.2548 18.9725 50.3472 19.0934 50.3472 19.1357C50.3472 19.2428 50.9394 19.8242 51.0485 19.8242C51.0977 19.8242 51.1822 19.8857 51.2364 19.9609C51.2907 20.0361 51.383 20.0977 51.4417 20.0977C51.5003 20.0977 51.5926 20.1592 51.6469 20.2344C51.7011 20.3096 51.8002 20.3711 51.8672 20.3711C51.9341 20.3711 51.9889 20.4019 51.9889 20.4395C51.9889 20.4771 52.112 20.5078 52.2625 20.5078C52.413 20.5078 52.5362 20.5386 52.5362 20.5762C52.5362 20.6138 52.6285 20.6445 52.7414 20.6445C52.8543 20.6445 52.9466 20.6753 52.9466 20.7129C52.9466 20.7549 53.2886 20.7812 53.8359 20.7812C54.3831 20.7812 54.7252 20.7549 54.7252 20.7129C54.7252 20.6753 54.8175 20.6445 54.9304 20.6445C55.0433 20.6445 55.1356 20.6138 55.1356 20.5762C55.1356 20.5386 55.252 20.5078 55.3941 20.5078C55.5742 20.5078 55.6826 20.4663 55.7513 20.3711C55.8055 20.2959 55.9046 20.2344 55.9716 20.2344C56.0385 20.2344 56.0933 20.2036 56.0933 20.166C56.0933 20.1284 56.1425 20.0977 56.2027 20.0977C56.2628 20.0977 56.3983 20.0054 56.5037 19.8926C56.6092 19.7798 56.7303 19.6875 56.7729 19.6875C56.8736 19.6875 57.3246 19.2368 57.3246 19.1362C57.3246 19.0936 57.417 18.9725 57.5298 18.8672C57.6427 18.7618 57.7351 18.6264 57.7351 18.5663C57.7351 18.5062 57.7658 18.457 57.8035 18.457C57.8411 18.457 57.8719 18.3955 57.8719 18.3203C57.8719 18.2451 57.9027 18.1836 57.9403 18.1836C57.9779 18.1836 58.0087 18.1221 58.0087 18.0469C58.0087 17.9717 58.0395 17.9102 58.0771 17.9102C58.1147 17.9102 58.1455 17.8179 58.1455 17.7051C58.1455 17.5923 58.1763 17.5 58.2139 17.5C58.2519 17.5 58.2823 17.3177 58.2823 17.0898C58.2823 16.862 58.3127 16.6797 58.3507 16.6797C58.3888 16.6797 58.4191 16.4974 58.4191 16.2695C58.4191 16.0417 58.3888 15.8594 58.3507 15.8594C58.3127 15.8594 58.2823 15.6771 58.2823 15.4492C58.2823 15.2214 58.2519 15.0391 58.2139 15.0391C58.1763 15.0391 58.1455 14.9468 58.1455 14.834C58.1455 14.7212 58.1147 14.6289 58.0771 14.6289C58.0395 14.6289 58.0087 14.5674 58.0087 14.4922C58.0087 14.417 57.9779 14.3555 57.9403 14.3555C57.9027 14.3555 57.8719 14.2939 57.8719 14.2188C57.8719 14.1436 57.8411 14.082 57.8035 14.082C57.7658 14.082 57.7351 14.0273 57.7351 13.9604C57.7351 13.8935 57.6735 13.7944 57.5982 13.7402C57.523 13.686 57.4614 13.6017 57.4614 13.553C57.4614 13.4374 56.6016 12.5781 56.4859 12.5781C56.4371 12.5781 56.3528 12.5166 56.2985 12.4414C56.2443 12.3662 56.1452 12.3047 56.0782 12.3047C56.0113 12.3047 55.9565 12.2739 55.9565 12.2363C55.9565 12.1987 55.8949 12.168 55.8197 12.168C55.7444 12.168 55.6829 12.1372 55.6829 12.0996C55.6829 12.062 55.5905 12.0312 55.4776 12.0312C55.3648 12.0312 55.2724 12.0005 55.2724 11.9629C55.2724 11.9253 55.1801 11.8945 55.0672 11.8945C54.9543 11.8945 54.862 11.8638 54.862 11.8262C54.862 11.7837 54.4743 11.7578 53.8359 11.7578C53.1975 11.7578 52.8098 11.7837 52.8098 11.8262ZM33.7928 17.0215C33.7928 17.0625 33.5192 17.0898 33.1087 17.0898C32.6983 17.0898 32.4247 17.1172 32.4247 17.1582C32.4247 17.1962 32.2422 17.2266 32.0142 17.2266C31.7862 17.2266 31.6038 17.2569 31.6038 17.2949C31.6038 17.3325 31.4499 17.3633 31.2618 17.3633C31.0736 17.3633 30.9197 17.394 30.9197 17.4316C30.9197 17.4692 30.8274 17.5 30.7145 17.5C30.6016 17.5 30.5093 17.5308 30.5093 17.5684C30.5093 17.606 30.3862 17.6367 30.2357 17.6367C30.0852 17.6367 29.962 17.6675 29.962 17.7051C29.962 17.7427 29.8697 17.7734 29.7568 17.7734C29.6439 17.7734 29.5516 17.8042 29.5516 17.8418C29.5516 17.8794 29.4592 17.9102 29.3464 17.9102C29.2335 17.9102 29.1412 17.9409 29.1412 17.9785C29.1412 18.0161 29.0488 18.0469 28.9359 18.0469C28.8231 18.0469 28.7307 18.0776 28.7307 18.1152C28.7307 18.1528 28.6384 18.1836 28.5255 18.1836C28.4126 18.1836 28.3203 18.2144 28.3203 18.252C28.3203 18.2896 28.2587 18.3203 28.1835 18.3203C28.1082 18.3203 28.0467 18.3511 28.0467 18.3887C28.0467 18.4263 27.9543 18.457 27.8414 18.457C27.7286 18.457 27.6362 18.4878 27.6362 18.5254C27.6362 18.563 27.5746 18.5938 27.4994 18.5938C27.4242 18.5938 27.3626 18.6245 27.3626 18.6621C27.3626 18.6997 27.301 18.7305 27.2258 18.7305C27.1505 18.7305 27.089 18.7612 27.089 18.7988C27.089 18.8364 27.0274 18.8672 26.9521 18.8672C26.8769 18.8672 26.8153 18.8979 26.8153 18.9355C26.8153 18.9731 26.7538 19.0039 26.6785 19.0039C26.6033 19.0039 26.5417 19.0347 26.5417 19.0723C26.5417 19.1099 26.4869 19.1406 26.42 19.1406C26.353 19.1406 26.2539 19.2021 26.1997 19.2773C26.1454 19.3525 26.0463 19.4141 25.9793 19.4141C25.9124 19.4141 25.8576 19.4448 25.8576 19.4824C25.8576 19.52 25.8029 19.5508 25.736 19.5508C25.669 19.5508 25.5699 19.6123 25.5156 19.6875C25.4614 19.7627 25.3622 19.8242 25.2953 19.8242C25.2284 19.8242 25.1736 19.855 25.1736 19.8926C25.1736 19.9302 25.1244 19.9609 25.0642 19.9609C25.0041 19.9609 24.8686 20.0532 24.7631 20.166C24.6577 20.2788 24.5346 20.3711 24.4895 20.3711C24.4444 20.3711 24.3213 20.4634 24.2159 20.5762C24.1105 20.689 23.9886 20.7812 23.9452 20.7812C23.9018 20.7812 23.685 20.9658 23.4634 21.1914C23.2418 21.417 23.0277 21.6016 22.9876 21.6016C22.8919 21.6016 21.4796 23.0135 21.4796 23.1091C21.4796 23.1496 21.3257 23.3325 21.1376 23.5156C20.9495 23.6988 20.7956 23.8844 20.7956 23.9281C20.7956 23.9719 20.7032 24.0939 20.5903 24.1992C20.4775 24.3046 20.3851 24.4276 20.3851 24.4727C20.3851 24.5177 20.2928 24.6408 20.1799 24.7461C20.067 24.8514 19.9747 24.9869 19.9747 25.0469C19.9747 25.1071 19.9439 25.1562 19.9063 25.1562C19.8687 25.1562 19.8379 25.211 19.8379 25.2779C19.8379 25.3448 19.7763 25.4438 19.7011 25.498C19.6258 25.5523 19.5642 25.6513 19.5642 25.7182C19.5642 25.7851 19.5335 25.8398 19.4958 25.8398C19.4582 25.8398 19.4274 25.8946 19.4274 25.9615C19.4274 26.0284 19.3659 26.1274 19.2906 26.1816C19.2154 26.2358 19.1538 26.3349 19.1538 26.4018C19.1538 26.4687 19.123 26.5234 19.0854 26.5234C19.0478 26.5234 19.017 26.585 19.017 26.6602C19.017 26.7354 18.9862 26.7969 18.9486 26.7969C18.911 26.7969 18.8802 26.8584 18.8802 26.9336C18.8802 27.0088 18.8494 27.0703 18.8118 27.0703C18.7742 27.0703 18.7434 27.1318 18.7434 27.207C18.7434 27.2822 18.7126 27.3438 18.675 27.3438C18.6373 27.3438 18.6066 27.436 18.6066 27.5488C18.6066 27.6616 18.5758 27.7539 18.5382 27.7539C18.5005 27.7539 18.4697 27.8154 18.4697 27.8906C18.4697 27.9658 18.439 28.0273 18.4013 28.0273C18.3637 28.0273 18.3329 28.0889 18.3329 28.1641C18.3329 28.2393 18.3022 28.3008 18.2645 28.3008C18.2269 28.3008 18.1961 28.3931 18.1961 28.5059C18.1961 28.6187 18.1653 28.7109 18.1277 28.7109C18.0901 28.7109 18.0593 28.8032 18.0593 28.916C18.0593 29.0288 18.0285 29.1211 17.9909 29.1211C17.9533 29.1211 17.9225 29.2134 17.9225 29.3262C17.9225 29.439 17.8917 29.5312 17.8541 29.5312C17.8165 29.5312 17.7857 29.6235 17.7857 29.7363C17.7857 29.8491 17.7549 29.9414 17.7173 29.9414C17.6797 29.9414 17.6489 30.0337 17.6489 30.1465C17.6489 30.2593 17.6181 30.3516 17.5805 30.3516C17.5428 30.3516 17.5121 30.4746 17.5121 30.625C17.5121 30.7754 17.4813 30.8984 17.4436 30.8984C17.406 30.8984 17.3752 31.0522 17.3752 31.2402C17.3752 31.4282 17.3445 31.582 17.3068 31.582C17.2678 31.582 17.2384 31.7871 17.2384 32.0605C17.2384 32.334 17.2091 32.5391 17.17 32.5391C17.1295 32.5391 17.1016 32.7897 17.1016 33.1543C17.1016 33.5189 17.0738 33.7695 17.0332 33.7695C16.9901 33.7695 16.9648 34.2253 16.9648 35C16.9648 35.7747 16.9901 36.2305 17.0332 36.2305C17.0738 36.2305 17.1016 36.4811 17.1016 36.8457C17.1016 37.2103 17.1295 37.4609 17.17 37.4609C17.2091 37.4609 17.2384 37.666 17.2384 37.9395C17.2384 38.2129 17.2678 38.418 17.3068 38.418C17.3445 38.418 17.3752 38.5718 17.3752 38.7598C17.3752 38.9478 17.406 39.1016 17.4436 39.1016C17.4813 39.1016 17.5121 39.1938 17.5121 39.3066C17.5121 39.4194 17.5428 39.5117 17.5805 39.5117C17.6181 39.5117 17.6489 39.6348 17.6489 39.7852C17.6489 39.9355 17.6797 40.0586 17.7173 40.0586C17.7549 40.0586 17.7857 40.1509 17.7857 40.2637C17.7857 40.3765 17.8165 40.4688 17.8541 40.4688C17.8917 40.4688 17.9225 40.561 17.9225 40.6738C17.9225 40.7866 17.9533 40.8789 17.9909 40.8789C18.0285 40.8789 18.0593 40.9712 18.0593 41.084C18.0593 41.1968 18.0901 41.2891 18.1277 41.2891C18.1653 41.2891 18.1961 41.3813 18.1961 41.4941C18.1961 41.6069 18.2269 41.6992 18.2645 41.6992C18.3022 41.6992 18.3329 41.7607 18.3329 41.8359C18.3329 41.9111 18.3637 41.9727 18.4013 41.9727C18.439 41.9727 18.4697 42.0649 18.4697 42.1777C18.4697 42.2905 18.5005 42.3828 18.5382 42.3828C18.5758 42.3828 18.6066 42.4443 18.6066 42.5195C18.6066 42.5947 18.6373 42.6562 18.675 42.6562C18.7126 42.6562 18.7434 42.7178 18.7434 42.793C18.7434 42.8682 18.7742 42.9297 18.8118 42.9297C18.8494 42.9297 18.8802 42.9912 18.8802 43.0664C18.8802 43.1416 18.911 43.2031 18.9486 43.2031C18.9862 43.2031 19.017 43.2646 19.017 43.3398C19.017 43.415 19.0478 43.4766 19.0854 43.4766C19.123 43.4766 19.1538 43.5313 19.1538 43.5982C19.1538 43.6651 19.2154 43.7641 19.2906 43.8184C19.3659 43.8726 19.4274 43.9716 19.4274 44.0385C19.4274 44.1054 19.4582 44.1602 19.4958 44.1602C19.5335 44.1602 19.5642 44.2149 19.5642 44.2818C19.5642 44.3487 19.6258 44.4477 19.7011 44.502C19.7763 44.5562 19.8379 44.6552 19.8379 44.7221C19.8379 44.789 19.8687 44.8438 19.9063 44.8438C19.9439 44.8438 19.9747 44.8929 19.9747 44.9531C19.9747 45.0131 20.067 45.1486 20.1799 45.2539C20.2928 45.3592 20.3851 45.4823 20.3851 45.5273C20.3851 45.5724 20.4775 45.6954 20.5903 45.8008C20.7032 45.9061 20.7956 46.0281 20.7956 46.0719C20.7956 46.1156 20.9495 46.3012 21.1376 46.4844C21.3257 46.6675 21.4796 46.8504 21.4796 46.8909C21.4796 46.9865 22.8919 48.3984 22.9876 48.3984C23.0277 48.3984 23.2418 48.583 23.4634 48.8086C23.685 49.0342 23.9018 49.2188 23.9452 49.2188C23.9886 49.2188 24.1105 49.311 24.2159 49.4238C24.3213 49.5366 24.4444 49.6289 24.4895 49.6289C24.5346 49.6289 24.6577 49.7212 24.7631 49.834C24.8686 49.9468 25.0041 50.0391 25.0642 50.0391C25.1244 50.0391 25.1736 50.0698 25.1736 50.1074C25.1736 50.145 25.2284 50.1758 25.2953 50.1758C25.3622 50.1758 25.4614 50.2373 25.5156 50.3125C25.5699 50.3877 25.669 50.4492 25.736 50.4492C25.8029 50.4492 25.8576 50.48 25.8576 50.5176C25.8576 50.5552 25.9124 50.5859 25.9793 50.5859C26.0463 50.5859 26.1454 50.6475 26.1997 50.7227C26.2539 50.7979 26.353 50.8594 26.42 50.8594C26.4869 50.8594 26.5417 50.8901 26.5417 50.9277C26.5417 50.9653 26.6033 50.9961 26.6785 50.9961C26.7538 50.9961 26.8153 51.0269 26.8153 51.0645C26.8153 51.1021 26.8769 51.1328 26.9521 51.1328C27.0274 51.1328 27.089 51.1636 27.089 51.2012C27.089 51.2388 27.1505 51.2695 27.2258 51.2695C27.301 51.2695 27.3626 51.3003 27.3626 51.3379C27.3626 51.3755 27.4242 51.4062 27.4994 51.4062C27.5746 51.4062 27.6362 51.437 27.6362 51.4746C27.6362 51.5122 27.7286 51.543 27.8414 51.543C27.9543 51.543 28.0467 51.5737 28.0467 51.6113C28.0467 51.6489 28.1082 51.6797 28.1835 51.6797C28.2587 51.6797 28.3203 51.7104 28.3203 51.748C28.3203 51.7856 28.4126 51.8164 28.5255 51.8164C28.6384 51.8164 28.7307 51.8472 28.7307 51.8848C28.7307 51.9224 28.8231 51.9531 28.9359 51.9531C29.0488 51.9531 29.1412 51.9839 29.1412 52.0215C29.1412 52.0591 29.2027 52.0898 29.278 52.0898C29.3532 52.0898 29.4148 52.1206 29.4148 52.1582C29.4148 52.1958 29.5379 52.2266 29.6884 52.2266C29.8389 52.2266 29.962 52.2573 29.962 52.2949C29.962 52.3325 30.0544 52.3633 30.1673 52.3633C30.2801 52.3633 30.3725 52.394 30.3725 52.4316C30.3725 52.4692 30.4956 52.5 30.6461 52.5C30.7966 52.5 30.9197 52.5308 30.9197 52.5684C30.9197 52.606 31.0736 52.6367 31.2618 52.6367C31.4499 52.6367 31.6038 52.6675 31.6038 52.7051C31.6038 52.7441 31.809 52.7734 32.0826 52.7734C32.3563 52.7734 32.5615 52.8028 32.5615 52.8418C32.5615 52.8816 32.7895 52.9102 33.1087 52.9102C33.428 52.9102 33.656 52.9387 33.656 52.9785C33.656 53.0217 34.1348 53.0469 34.9557 53.0469C35.7766 53.0469 36.2554 53.0217 36.2554 52.9785C36.2554 52.938 36.5063 52.9102 36.8711 52.9102C37.2359 52.9102 37.4867 52.8823 37.4867 52.8418C37.4867 52.8028 37.692 52.7734 37.9656 52.7734C38.2392 52.7734 38.4444 52.7441 38.4444 52.7051C38.4444 52.6675 38.5984 52.6367 38.7865 52.6367C38.9746 52.6367 39.1285 52.606 39.1285 52.5684C39.1285 52.5308 39.2208 52.5 39.3337 52.5C39.4466 52.5 39.5389 52.4692 39.5389 52.4316C39.5389 52.394 39.6621 52.3633 39.8126 52.3633C39.9631 52.3633 40.0862 52.3325 40.0862 52.2949C40.0862 52.2573 40.2093 52.2266 40.3598 52.2266C40.5103 52.2266 40.6334 52.1958 40.6334 52.1582C40.6334 52.1206 40.695 52.0898 40.7703 52.0898C40.8455 52.0898 40.9071 52.0591 40.9071 52.0215C40.9071 51.9839 40.9994 51.9531 41.1123 51.9531C41.2252 51.9531 41.3175 51.9224 41.3175 51.8848C41.3175 51.8472 41.4099 51.8164 41.5227 51.8164C41.6356 51.8164 41.7279 51.7856 41.7279 51.748C41.7279 51.7104 41.7895 51.6797 41.8648 51.6797C41.94 51.6797 42.0016 51.6489 42.0016 51.6113C42.0016 51.5737 42.0939 51.543 42.2068 51.543C42.3197 51.543 42.412 51.5122 42.412 51.4746C42.412 51.437 42.4736 51.4062 42.5488 51.4062C42.6241 51.4062 42.6856 51.3755 42.6856 51.3379C42.6856 51.3003 42.7472 51.2695 42.8224 51.2695C42.8977 51.2695 42.9593 51.2388 42.9593 51.2012C42.9593 51.1636 43.0208 51.1328 43.0961 51.1328C43.1713 51.1328 43.2329 51.1021 43.2329 51.0645C43.2329 51.0269 43.2945 50.9961 43.3697 50.9961C43.4449 50.9961 43.5065 50.9653 43.5065 50.9277C43.5065 50.8901 43.5613 50.8594 43.6282 50.8594C43.6952 50.8594 43.7943 50.7979 43.8485 50.7227C43.9028 50.6475 44.0019 50.5859 44.0689 50.5859C44.1358 50.5859 44.1906 50.5552 44.1906 50.5176C44.1906 50.48 44.2454 50.4492 44.3123 50.4492C44.3792 50.4492 44.4784 50.3877 44.5326 50.3125C44.5869 50.2373 44.6792 50.1758 44.7378 50.1758C44.7965 50.1758 44.8888 50.1143 44.9431 50.0391C44.9973 49.9639 45.0896 49.9023 45.1483 49.9023C45.2069 49.9023 45.2992 49.8408 45.3535 49.7656C45.4077 49.6904 45.4945 49.6289 45.5464 49.6289C45.5982 49.6289 45.7269 49.5366 45.8323 49.4238C45.9377 49.311 46.0599 49.2188 46.1036 49.2188C46.1474 49.2188 46.3331 49.0649 46.5164 48.877C46.6997 48.689 46.8827 48.5352 46.9232 48.5352C47.0189 48.5352 48.4318 47.1239 48.4318 47.0282C48.4318 46.9881 48.6165 46.7742 48.8422 46.5527C49.068 46.3313 49.2527 46.1146 49.2527 46.0713C49.2527 46.0279 49.345 45.9061 49.4579 45.8008C49.5707 45.6954 49.6631 45.5668 49.6631 45.515C49.6631 45.4632 49.7247 45.3765 49.7999 45.3223C49.8752 45.2681 49.9367 45.1758 49.9367 45.1172C49.9367 45.0586 49.9983 44.9663 50.0735 44.9121C50.1488 44.8579 50.2103 44.7656 50.2103 44.707C50.2103 44.6484 50.2719 44.5562 50.3472 44.502C50.4224 44.4477 50.484 44.3487 50.484 44.2818C50.484 44.2149 50.5148 44.1602 50.5524 44.1602C50.59 44.1602 50.6208 44.1054 50.6208 44.0385C50.6208 43.9716 50.6824 43.8726 50.7576 43.8184C50.8328 43.7641 50.8944 43.6651 50.8944 43.5982C50.8944 43.5313 50.9252 43.4766 50.9628 43.4766C51.0004 43.4766 51.0312 43.415 51.0312 43.3398C51.0312 43.2646 51.062 43.2031 51.0996 43.2031C51.1373 43.2031 51.168 43.1416 51.168 43.0664C51.168 42.9912 51.1988 42.9297 51.2364 42.9297C51.2741 42.9297 51.3049 42.8682 51.3049 42.793C51.3049 42.7178 51.3356 42.6562 51.3733 42.6562C51.4109 42.6562 51.4417 42.564 51.4417 42.4512C51.4417 42.3384 51.4724 42.2461 51.5101 42.2461C51.5477 42.2461 51.5785 42.1846 51.5785 42.1094C51.5785 42.0342 51.6093 41.9727 51.6469 41.9727C51.6845 41.9727 51.7153 41.9111 51.7153 41.8359C51.7153 41.7607 51.7461 41.6992 51.7837 41.6992C51.8213 41.6992 51.8521 41.6069 51.8521 41.4941C51.8521 41.3813 51.8829 41.2891 51.9205 41.2891C51.9581 41.2891 51.9889 41.1968 51.9889 41.084C51.9889 40.9712 52.0197 40.8789 52.0573 40.8789C52.0949 40.8789 52.1257 40.7866 52.1257 40.6738C52.1257 40.561 52.1565 40.4688 52.1941 40.4688C52.2318 40.4688 52.2625 40.3765 52.2625 40.2637C52.2625 40.1509 52.2933 40.0586 52.3309 40.0586C52.3686 40.0586 52.3994 39.9355 52.3994 39.7852C52.3994 39.6348 52.4301 39.5117 52.4678 39.5117C52.5054 39.5117 52.5362 39.4194 52.5362 39.3066C52.5362 39.1938 52.567 39.1016 52.6046 39.1016C52.6422 39.1016 52.673 38.9478 52.673 38.7598C52.673 38.5718 52.7038 38.418 52.7414 38.418C52.7804 38.418 52.8098 38.2129 52.8098 37.9395C52.8098 37.666 52.8391 37.4609 52.8782 37.4609C52.9188 37.4609 52.9466 37.2103 52.9466 36.8457C52.9466 36.4811 52.9744 36.2305 53.015 36.2305C53.0582 36.2305 53.0834 35.752 53.0834 34.9316C53.0834 34.1113 53.0582 33.6328 53.015 33.6328C52.9751 33.6328 52.9466 33.405 52.9466 33.0859C52.9466 32.7669 52.9181 32.5391 52.8782 32.5391C52.8391 32.5391 52.8098 32.334 52.8098 32.0605C52.8098 31.7871 52.7804 31.582 52.7414 31.582C52.7038 31.582 52.673 31.4282 52.673 31.2402C52.673 31.0522 52.6422 30.8984 52.6046 30.8984C52.567 30.8984 52.5362 30.7754 52.5362 30.625C52.5362 30.4746 52.5054 30.3516 52.4678 30.3516C52.4301 30.3516 52.3994 30.2593 52.3994 30.1465C52.3994 30.0337 52.3686 29.9414 52.3309 29.9414C52.2933 29.9414 52.2625 29.8491 52.2625 29.7363C52.2625 29.6235 52.2318 29.5312 52.1941 29.5312C52.1565 29.5312 52.1257 29.439 52.1257 29.3262C52.1257 29.2134 52.0949 29.1211 52.0573 29.1211C52.0197 29.1211 51.9889 29.0288 51.9889 28.916C51.9889 28.8032 51.9581 28.7109 51.9205 28.7109C51.8829 28.7109 51.8521 28.6187 51.8521 28.5059C51.8521 28.3931 51.8213 28.3008 51.7837 28.3008C51.7461 28.3008 51.7153 28.2393 51.7153 28.1641C51.7153 28.0889 51.6845 28.0273 51.6469 28.0273C51.6093 28.0273 51.5785 27.9658 51.5785 27.8906C51.5785 27.8154 51.5477 27.7539 51.5101 27.7539C51.4724 27.7539 51.4417 27.6616 51.4417 27.5488C51.4417 27.436 51.4109 27.3438 51.3733 27.3438C51.3356 27.3438 51.3049 27.2822 51.3049 27.207C51.3049 27.1318 51.2741 27.0703 51.2364 27.0703C51.1988 27.0703 51.168 27.0088 51.168 26.9336C51.168 26.8584 51.1373 26.7969 51.0996 26.7969C51.062 26.7969 51.0312 26.7354 51.0312 26.6602C51.0312 26.585 51.0004 26.5234 50.9628 26.5234C50.9252 26.5234 50.8944 26.4687 50.8944 26.4018C50.8944 26.3349 50.8328 26.2358 50.7576 26.1816C50.6824 26.1274 50.6208 26.0284 50.6208 25.9615C50.6208 25.8946 50.59 25.8398 50.5524 25.8398C50.5148 25.8398 50.484 25.7851 50.484 25.7182C50.484 25.6513 50.4224 25.5523 50.3472 25.498C50.2719 25.4438 50.2103 25.3516 50.2103 25.293C50.2103 25.2344 50.1488 25.1421 50.0735 25.0879C49.9983 25.0337 49.9367 24.9414 49.9367 24.8828C49.9367 24.8242 49.8752 24.7319 49.7999 24.6777C49.7247 24.6235 49.6631 24.5368 49.6631 24.485C49.6631 24.4332 49.5707 24.3046 49.4579 24.1992C49.345 24.0939 49.2527 23.9719 49.2527 23.9281C49.2527 23.8844 49.0987 23.6988 48.9106 23.5156C48.7225 23.3325 48.5686 23.1496 48.5686 23.1092C48.5686 23.0132 47.0192 21.4648 46.9231 21.4648C46.8826 21.4648 46.6997 21.311 46.5164 21.123C46.3331 20.9351 46.1474 20.7812 46.1036 20.7812C46.0599 20.7812 45.9377 20.689 45.8323 20.5762C45.7269 20.4634 45.5982 20.3711 45.5464 20.3711C45.4945 20.3711 45.4077 20.3096 45.3535 20.2344C45.2992 20.1592 45.2069 20.0977 45.1483 20.0977C45.0896 20.0977 44.9973 20.0361 44.9431 19.9609C44.8888 19.8857 44.7965 19.8242 44.7378 19.8242C44.6792 19.8242 44.5869 19.7627 44.5326 19.6875C44.4784 19.6123 44.3792 19.5508 44.3123 19.5508C44.2454 19.5508 44.1906 19.52 44.1906 19.4824C44.1906 19.4448 44.1358 19.4141 44.0689 19.4141C44.0019 19.4141 43.9028 19.3525 43.8485 19.2773C43.7943 19.2021 43.6952 19.1406 43.6282 19.1406C43.5613 19.1406 43.5065 19.1099 43.5065 19.0723C43.5065 19.0347 43.4449 19.0039 43.3697 19.0039C43.2945 19.0039 43.2329 18.9731 43.2329 18.9355C43.2329 18.8979 43.1713 18.8672 43.0961 18.8672C43.0208 18.8672 42.9593 18.8364 42.9593 18.7988C42.9593 18.7612 42.8977 18.7305 42.8224 18.7305C42.7472 18.7305 42.6856 18.6997 42.6856 18.6621C42.6856 18.6245 42.6241 18.5938 42.5488 18.5938C42.4736 18.5938 42.412 18.563 42.412 18.5254C42.412 18.4878 42.3197 18.457 42.2068 18.457C42.0939 18.457 42.0016 18.4263 42.0016 18.3887C42.0016 18.3511 41.94 18.3203 41.8648 18.3203C41.7895 18.3203 41.7279 18.2896 41.7279 18.252C41.7279 18.2144 41.6356 18.1836 41.5227 18.1836C41.4099 18.1836 41.3175 18.1528 41.3175 18.1152C41.3175 18.0776 41.2252 18.0469 41.1123 18.0469C40.9994 18.0469 40.9071 18.0161 40.9071 17.9785C40.9071 17.9409 40.8147 17.9102 40.7018 17.9102C40.589 17.9102 40.4966 17.8794 40.4966 17.8418C40.4966 17.8042 40.4043 17.7734 40.2914 17.7734C40.1785 17.7734 40.0862 17.7427 40.0862 17.7051C40.0862 17.6675 39.9631 17.6367 39.8126 17.6367C39.6621 17.6367 39.5389 17.606 39.5389 17.5684C39.5389 17.5308 39.4466 17.5 39.3337 17.5C39.2208 17.5 39.1285 17.4692 39.1285 17.4316C39.1285 17.394 38.9746 17.3633 38.7865 17.3633C38.5984 17.3633 38.4444 17.3325 38.4444 17.2949C38.4444 17.2569 38.262 17.2266 38.034 17.2266C37.806 17.2266 37.6236 17.1962 37.6236 17.1582C37.6236 17.1168 37.3272 17.0898 36.8711 17.0898C36.415 17.0898 36.1186 17.0629 36.1186 17.0215C36.1186 16.9786 35.6854 16.9531 34.9557 16.9531C34.226 16.9531 33.7928 16.9786 33.7928 17.0215ZM36.6659 23.3105C36.6659 23.3486 36.8483 23.3789 37.0763 23.3789C37.3043 23.3789 37.4867 23.4093 37.4867 23.4473C37.4867 23.4849 37.6099 23.5156 37.7604 23.5156C37.9109 23.5156 38.034 23.5464 38.034 23.584C38.034 23.6216 38.1571 23.6523 38.3076 23.6523C38.4581 23.6523 38.5812 23.6831 38.5812 23.7207C38.5812 23.7583 38.6736 23.7891 38.7865 23.7891C38.8993 23.7891 38.9917 23.8198 38.9917 23.8574C38.9917 23.895 39.0533 23.9258 39.1285 23.9258C39.2037 23.9258 39.2653 23.9565 39.2653 23.9941C39.2653 24.0317 39.3577 24.0625 39.4705 24.0625C39.5834 24.0625 39.6758 24.0933 39.6758 24.1309C39.6758 24.1685 39.7373 24.1992 39.8126 24.1992C39.8878 24.1992 39.9494 24.23 39.9494 24.2676C39.9494 24.3052 40.0109 24.3359 40.0862 24.3359C40.1614 24.3359 40.223 24.3667 40.223 24.4043C40.223 24.4419 40.2846 24.4727 40.3598 24.4727C40.4351 24.4727 40.4966 24.5034 40.4966 24.541C40.4966 24.5786 40.5582 24.6094 40.6334 24.6094C40.7087 24.6094 40.7703 24.6401 40.7703 24.6777C40.7703 24.7153 40.8251 24.7461 40.892 24.7461C40.9589 24.7461 41.058 24.8076 41.1123 24.8828C41.1665 24.958 41.2657 25.0195 41.3326 25.0195C41.3995 25.0195 41.4543 25.0503 41.4543 25.0879C41.4543 25.1255 41.5035 25.1562 41.5637 25.1562C41.6238 25.1562 41.7593 25.2485 41.8648 25.3613C41.9702 25.4741 42.0923 25.5664 42.1361 25.5664C42.1798 25.5664 42.3656 25.7202 42.5488 25.9082C42.7321 26.0962 42.9154 26.25 42.9563 26.25C43.0532 26.25 43.7801 26.9765 43.7801 27.0733C43.7801 27.1141 43.9341 27.2973 44.1222 27.4805C44.3103 27.6636 44.4642 27.8492 44.4642 27.8929C44.4642 27.9367 44.5566 28.0587 44.6694 28.1641C44.7823 28.2694 44.8746 28.4048 44.8746 28.4649C44.8746 28.5251 44.9054 28.5742 44.9431 28.5742C44.9807 28.5742 45.0115 28.629 45.0115 28.6958C45.0115 28.7628 45.073 28.8618 45.1483 28.916C45.2235 28.9702 45.2851 29.0693 45.2851 29.1362C45.2851 29.2031 45.3159 29.2578 45.3535 29.2578C45.3911 29.2578 45.4219 29.3193 45.4219 29.3945C45.4219 29.4697 45.4527 29.5312 45.4903 29.5312C45.5279 29.5312 45.5587 29.5928 45.5587 29.668C45.5587 29.7432 45.5895 29.8047 45.6271 29.8047C45.6647 29.8047 45.6955 29.8662 45.6955 29.9414C45.6955 30.0166 45.7263 30.0781 45.7639 30.0781C45.8016 30.0781 45.8323 30.1396 45.8323 30.2148C45.8323 30.29 45.8631 30.3516 45.9007 30.3516C45.9384 30.3516 45.9691 30.4438 45.9691 30.5566C45.9691 30.6694 45.9999 30.7617 46.0376 30.7617C46.0752 30.7617 46.106 30.8232 46.106 30.8984C46.106 30.9736 46.1367 31.0352 46.1744 31.0352C46.212 31.0352 46.2428 31.1274 46.2428 31.2402C46.2428 31.353 46.2736 31.4453 46.3112 31.4453C46.3488 31.4453 46.3796 31.5684 46.3796 31.7188C46.3796 31.8691 46.4104 31.9922 46.448 31.9922C46.4856 31.9922 46.5164 32.1152 46.5164 32.2656C46.5164 32.416 46.5472 32.5391 46.5848 32.5391C46.6228 32.5391 46.6532 32.7214 46.6532 32.9492C46.6532 33.1771 46.6836 33.3594 46.7216 33.3594C46.7653 33.3594 46.79 33.9518 46.79 35C46.79 36.0482 46.7653 36.6406 46.7216 36.6406C46.6836 36.6406 46.6532 36.8229 46.6532 37.0508C46.6532 37.2786 46.6228 37.4609 46.5848 37.4609C46.5472 37.4609 46.5164 37.584 46.5164 37.7344C46.5164 37.8848 46.4856 38.0078 46.448 38.0078C46.4104 38.0078 46.3796 38.1309 46.3796 38.2812C46.3796 38.4316 46.3488 38.5547 46.3112 38.5547C46.2736 38.5547 46.2428 38.647 46.2428 38.7598C46.2428 38.8726 46.212 38.9648 46.1744 38.9648C46.1367 38.9648 46.106 39.0264 46.106 39.1016C46.106 39.1768 46.0752 39.2383 46.0376 39.2383C45.9999 39.2383 45.9691 39.3306 45.9691 39.4434C45.9691 39.5562 45.9384 39.6484 45.9007 39.6484C45.8631 39.6484 45.8323 39.71 45.8323 39.7852C45.8323 39.8604 45.8016 39.9219 45.7639 39.9219C45.7263 39.9219 45.6955 39.9834 45.6955 40.0586C45.6955 40.1338 45.6647 40.1953 45.6271 40.1953C45.5895 40.1953 45.5587 40.2568 45.5587 40.332C45.5587 40.4072 45.5279 40.4688 45.4903 40.4688C45.4527 40.4688 45.4219 40.5303 45.4219 40.6055C45.4219 40.6807 45.3911 40.7422 45.3535 40.7422C45.3159 40.7422 45.2851 40.7969 45.2851 40.8638C45.2851 40.9307 45.2235 41.0298 45.1483 41.084C45.073 41.1382 45.0115 41.2305 45.0115 41.2891C45.0115 41.3476 44.9499 41.4399 44.8746 41.4941C44.7994 41.5483 44.7378 41.6406 44.7378 41.6992C44.7378 41.7578 44.6763 41.8501 44.601 41.9043C44.5258 41.9585 44.4642 42.0442 44.4642 42.0947C44.4642 42.1453 44.3103 42.3364 44.1222 42.5195C43.9341 42.7027 43.7801 42.8859 43.7801 42.9267C43.7801 43.0235 43.0532 43.75 42.9563 43.75C42.9154 43.75 42.7321 43.9038 42.5488 44.0918C42.3656 44.2798 42.1798 44.4336 42.1361 44.4336C42.0923 44.4336 41.9702 44.5259 41.8648 44.6387C41.7593 44.7515 41.6238 44.8438 41.5637 44.8438C41.5035 44.8438 41.4543 44.8745 41.4543 44.9121C41.4543 44.9497 41.3995 44.9805 41.3326 44.9805C41.2657 44.9805 41.1665 45.042 41.1123 45.1172C41.058 45.1924 40.9589 45.2539 40.892 45.2539C40.8251 45.2539 40.7703 45.2847 40.7703 45.3223C40.7703 45.3599 40.7087 45.3906 40.6334 45.3906C40.5582 45.3906 40.4966 45.4214 40.4966 45.459C40.4966 45.4966 40.4351 45.5273 40.3598 45.5273C40.2846 45.5273 40.223 45.5581 40.223 45.5957C40.223 45.6333 40.1614 45.6641 40.0862 45.6641C40.0109 45.6641 39.9494 45.6948 39.9494 45.7324C39.9494 45.77 39.8878 45.8008 39.8126 45.8008C39.7373 45.8008 39.6758 45.8315 39.6758 45.8691C39.6758 45.9067 39.5834 45.9375 39.4705 45.9375C39.3577 45.9375 39.2653 45.9683 39.2653 46.0059C39.2653 46.0435 39.2037 46.0742 39.1285 46.0742C39.0533 46.0742 38.9917 46.105 38.9917 46.1426C38.9917 46.1802 38.8993 46.2109 38.7865 46.2109C38.6736 46.2109 38.5812 46.2417 38.5812 46.2793C38.5812 46.3169 38.4581 46.3477 38.3076 46.3477C38.1571 46.3477 38.034 46.3784 38.034 46.416C38.034 46.4536 37.9109 46.4844 37.7604 46.4844C37.6099 46.4844 37.4867 46.5151 37.4867 46.5527C37.4867 46.5907 37.3043 46.6211 37.0763 46.6211C36.8483 46.6211 36.6659 46.6514 36.6659 46.6895C36.6659 46.7331 36.073 46.7578 35.0241 46.7578C33.9752 46.7578 33.3824 46.7331 33.3824 46.6895C33.3824 46.6514 33.1999 46.6211 32.9719 46.6211C32.7439 46.6211 32.5615 46.5907 32.5615 46.5527C32.5615 46.5151 32.4383 46.4844 32.2879 46.4844C32.1374 46.4844 32.0142 46.4536 32.0142 46.416C32.0142 46.3784 31.8911 46.3477 31.7406 46.3477C31.5901 46.3477 31.467 46.3169 31.467 46.2793C31.467 46.2417 31.3746 46.2109 31.2618 46.2109C31.1489 46.2109 31.0565 46.1802 31.0565 46.1426C31.0565 46.105 30.995 46.0742 30.9197 46.0742C30.8445 46.0742 30.7829 46.0435 30.7829 46.0059C30.7829 45.9683 30.6906 45.9375 30.5777 45.9375C30.4648 45.9375 30.3725 45.9067 30.3725 45.8691C30.3725 45.8315 30.3109 45.8008 30.2357 45.8008C30.1604 45.8008 30.0988 45.77 30.0988 45.7324C30.0988 45.6948 30.0373 45.6641 29.962 45.6641C29.8868 45.6641 29.8252 45.6333 29.8252 45.5957C29.8252 45.5581 29.7637 45.5273 29.6884 45.5273C29.6132 45.5273 29.5516 45.4966 29.5516 45.459C29.5516 45.4214 29.49 45.3906 29.4148 45.3906C29.3395 45.3906 29.278 45.3599 29.278 45.3223C29.278 45.2847 29.2232 45.2539 29.1563 45.2539C29.0893 45.2539 28.9902 45.1924 28.9359 45.1172C28.8817 45.042 28.7826 44.9805 28.7156 44.9805C28.6487 44.9805 28.5939 44.9497 28.5939 44.9121C28.5939 44.8745 28.5447 44.8438 28.4845 44.8438C28.4244 44.8438 28.2889 44.7515 28.1835 44.6387C28.0781 44.5259 27.9559 44.4336 27.9122 44.4336C27.8684 44.4336 27.6827 44.2798 27.4994 44.0918C27.3161 43.9038 27.1327 43.75 27.0916 43.75C26.9948 43.75 26.4049 43.1611 26.4049 43.0644C26.4049 43.0238 26.2202 42.8093 25.9945 42.5879C25.7687 42.3665 25.584 42.1498 25.584 42.1064C25.584 42.063 25.4917 41.9413 25.3788 41.8359C25.2659 41.7306 25.1736 41.5952 25.1736 41.5351C25.1736 41.4749 25.1428 41.4258 25.1052 41.4258C25.0676 41.4258 25.0368 41.371 25.0368 41.3042C25.0368 41.2372 24.9752 41.1382 24.9 41.084C24.8247 41.0298 24.7631 40.9307 24.7631 40.8638C24.7631 40.7969 24.7324 40.7422 24.6947 40.7422C24.6571 40.7422 24.6263 40.6807 24.6263 40.6055C24.6263 40.5303 24.5955 40.4688 24.5579 40.4688C24.5203 40.4688 24.4895 40.4072 24.4895 40.332C24.4895 40.2568 24.4587 40.1953 24.4211 40.1953C24.3835 40.1953 24.3527 40.1338 24.3527 40.0586C24.3527 39.9834 24.3219 39.9219 24.2843 39.9219C24.2467 39.9219 24.2159 39.8604 24.2159 39.7852C24.2159 39.71 24.1851 39.6484 24.1475 39.6484C24.1099 39.6484 24.0791 39.5562 24.0791 39.4434C24.0791 39.3306 24.0483 39.2383 24.0107 39.2383C23.973 39.2383 23.9423 39.1768 23.9423 39.1016C23.9423 39.0264 23.9115 38.9648 23.8739 38.9648C23.8362 38.9648 23.8055 38.8726 23.8055 38.7598C23.8055 38.647 23.7747 38.5547 23.737 38.5547C23.6994 38.5547 23.6686 38.4316 23.6686 38.2812C23.6686 38.1309 23.6379 38.0078 23.6002 38.0078C23.5626 38.0078 23.5318 37.8848 23.5318 37.7344C23.5318 37.584 23.501 37.4609 23.4634 37.4609C23.4254 37.4609 23.395 37.2786 23.395 37.0508C23.395 36.8229 23.3646 36.6406 23.3266 36.6406C23.2829 36.6406 23.2582 36.0482 23.2582 35C23.2582 33.9518 23.2829 33.3594 23.3266 33.3594C23.3646 33.3594 23.395 33.1771 23.395 32.9492C23.395 32.7214 23.4254 32.5391 23.4634 32.5391C23.501 32.5391 23.5318 32.416 23.5318 32.2656C23.5318 32.1152 23.5626 31.9922 23.6002 31.9922C23.6379 31.9922 23.6686 31.8691 23.6686 31.7188C23.6686 31.5684 23.6994 31.4453 23.737 31.4453C23.7747 31.4453 23.8055 31.353 23.8055 31.2402C23.8055 31.1274 23.8362 31.0352 23.8739 31.0352C23.9115 31.0352 23.9423 30.9736 23.9423 30.8984C23.9423 30.8232 23.973 30.7617 24.0107 30.7617C24.0483 30.7617 24.0791 30.6694 24.0791 30.5566C24.0791 30.4438 24.1099 30.3516 24.1475 30.3516C24.1851 30.3516 24.2159 30.29 24.2159 30.2148C24.2159 30.1396 24.2467 30.0781 24.2843 30.0781C24.3219 30.0781 24.3527 30.0166 24.3527 29.9414C24.3527 29.8662 24.3835 29.8047 24.4211 29.8047C24.4587 29.8047 24.4895 29.7432 24.4895 29.668C24.4895 29.5928 24.5203 29.5312 24.5579 29.5312C24.5955 29.5312 24.6263 29.4697 24.6263 29.3945C24.6263 29.3193 24.6571 29.2578 24.6947 29.2578C24.7324 29.2578 24.7631 29.2031 24.7631 29.1362C24.7631 29.0693 24.8247 28.9702 24.9 28.916C24.9752 28.8618 25.0368 28.7628 25.0368 28.6958C25.0368 28.629 25.0676 28.5742 25.1052 28.5742C25.1428 28.5742 25.1736 28.5251 25.1736 28.4649C25.1736 28.4048 25.2659 28.2694 25.3788 28.1641C25.4917 28.0587 25.584 27.937 25.584 27.8936C25.584 27.8502 25.7687 27.6335 25.9945 27.4121C26.2202 27.1907 26.4049 26.9762 26.4049 26.9356C26.4049 26.8389 26.9948 26.25 27.0916 26.25C27.1327 26.25 27.3161 26.0962 27.4994 25.9082C27.6827 25.7202 27.8684 25.5664 27.9122 25.5664C27.9559 25.5664 28.0781 25.4741 28.1835 25.3613C28.2889 25.2485 28.4244 25.1562 28.4845 25.1562C28.5447 25.1562 28.5939 25.1255 28.5939 25.0879C28.5939 25.0503 28.6487 25.0195 28.7156 25.0195C28.7826 25.0195 28.8817 24.958 28.9359 24.8828C28.9902 24.8076 29.0893 24.7461 29.1563 24.7461C29.2232 24.7461 29.278 24.7153 29.278 24.6777C29.278 24.6401 29.3395 24.6094 29.4148 24.6094C29.49 24.6094 29.5516 24.5786 29.5516 24.541C29.5516 24.5034 29.6132 24.4727 29.6884 24.4727C29.7637 24.4727 29.8252 24.4419 29.8252 24.4043C29.8252 24.3667 29.8868 24.3359 29.962 24.3359C30.0373 24.3359 30.0988 24.3052 30.0988 24.2676C30.0988 24.23 30.1604 24.1992 30.2357 24.1992C30.3109 24.1992 30.3725 24.1685 30.3725 24.1309C30.3725 24.0933 30.4648 24.0625 30.5777 24.0625C30.6906 24.0625 30.7829 24.0317 30.7829 23.9941C30.7829 23.9565 30.8445 23.9258 30.9197 23.9258C30.995 23.9258 31.0565 23.895 31.0565 23.8574C31.0565 23.8198 31.1489 23.7891 31.2618 23.7891C31.3746 23.7891 31.467 23.7583 31.467 23.7207C31.467 23.6831 31.5901 23.6523 31.7406 23.6523C31.8911 23.6523 32.0142 23.6216 32.0142 23.584C32.0142 23.5464 32.1374 23.5156 32.2879 23.5156C32.4383 23.5156 32.5615 23.4849 32.5615 23.4473C32.5615 23.4093 32.7439 23.3789 32.9719 23.3789C33.1999 23.3789 33.3824 23.3486 33.3824 23.3105C33.3824 23.2669 33.9752 23.2422 35.0241 23.2422C36.073 23.2422 36.6659 23.2669 36.6659 23.3105Z" fill="#662E1C"/>
</svg>
